<svg width="32" height="33" viewBox="0 0 32 33" fill="none" xmlns="http://www.w3.org/2000/svg">
<path d="M8.35449 15.77L16.3305 19.2107V26.2345L8.35449 22.7938L8.35449 15.77Z" stroke="#333333" stroke-linejoin="round"/>
<path d="M16.3301 19.2107L24.3061 15.77V22.7676L16.3301 26.2083V19.2107Z" stroke="#333333" stroke-linejoin="round"/>
<path d="M20.7409 14.3179L24.3066 15.7701L16.3305 19.1446L8.35449 15.7701L11.8985 14.3179" stroke="#333333" stroke-linecap="round" stroke-linejoin="round"/>
<path d="M8.35434 15.7699L2 13.0816L9.97603 16.456L16.3304 19.1444L8.35434 15.7699Z" stroke="#333333" stroke-linejoin="round"/>
<path d="M21.1254 7.78223L21.3202 7.32174C21.1286 7.24069 20.9069 7.28672 20.7634 7.43732L21.1254 7.78223ZM18.8724 9.42208C18.6819 9.622 18.6895 9.93849 18.8895 10.129C19.0894 10.3195 19.4059 10.3118 19.5964 10.1119L18.8724 9.42208ZM29.1014 11.1567L29.4481 11.517C29.5692 11.4005 29.6237 11.231 29.5931 11.0657C29.5625 10.9005 29.451 10.7617 29.2963 10.6962L29.1014 11.1567ZM20.7634 7.43732L18.8724 9.42208L19.5964 10.1119L21.4874 8.12713L20.7634 7.43732ZM24.6533 16.1304L29.4481 11.517L28.7548 10.7964L23.96 15.4098L24.6533 16.1304ZM29.2963 10.6962L21.3202 7.32174L20.9306 8.24271L28.9066 11.6172L29.2963 10.6962Z" fill="#333333"/>
<path d="M16.5 3.5L16.5 14.5" stroke="#F3921A" stroke-linecap="round"/>
<path d="M12.5 11.5L16.5 14.5L20.5 11.5" stroke="#F3921A" stroke-linecap="round"/>
<path d="M8 26L16.424 29.5L24.5 26" stroke="#8A8E8F" stroke-linecap="round"/>
</svg>
