<svg width="25" height="25" viewBox="0 0 25 25" fill="none" xmlns="http://www.w3.org/2000/svg">
<path d="M19.7746 19.4742L19.7739 19.4749C19.3325 19.9169 18.7193 20.1942 17.6047 20.3441C16.4614 20.4979 14.9496 20.5 12.8 20.5C10.6504 20.5 9.13887 20.4979 7.99556 20.3441C6.88106 20.1942 6.26725 19.9169 5.82471 19.4744L5.82447 19.4742C5.38275 19.0327 5.10561 18.4195 4.95579 17.3048C4.80213 16.1614 4.8 14.6496 4.8 12.5C4.8 10.3504 4.80213 8.83883 4.95579 7.69546C5.10555 6.58115 5.38259 5.96731 5.82459 5.52483C6.26764 5.08256 6.88171 4.80553 7.99582 4.65579C9.13907 4.50212 10.6504 4.5 12.8 4.5C14.9496 4.5 16.4612 4.50212 17.6044 4.65579C18.7187 4.80556 19.3322 5.08262 19.7742 5.52447C20.217 5.96758 20.4942 6.58162 20.6441 7.6959C20.7979 8.8391 20.8 10.3504 20.8 12.5C20.8 14.6496 20.7979 16.1611 20.6441 17.3043C20.4942 18.4187 20.217 19.0321 19.7746 19.4742Z" stroke="white" stroke-width="2"/>
<path d="M12.8003 4.78577L13.4476 6.53532C14.3592 8.9988 16.3015 10.9411 18.765 11.8527L20.5145 12.5001L18.765 13.1474C16.3015 14.059 14.3592 16.0013 13.4476 18.4648L12.8003 20.2143L12.1529 18.4648C11.2413 16.0013 9.299 14.059 6.83552 13.1474L5.08597 12.5001L6.83552 11.8527C9.299 10.9411 11.2413 8.9988 12.1529 6.53532L12.8003 4.78577Z" fill="white"/>
</svg>
