<svg width="24" height="25" viewBox="0 0 24 25" fill="none" xmlns="http://www.w3.org/2000/svg">
<path d="M20.0312 8.1875C19.7812 9.25 17.5312 12.4375 17.5312 12.4375C17.3438 12.75 17.25 12.9062 17.5312 13.25C17.6562 13.4062 20 15.6562 20.3438 16.7188C20.5 17.25 20.25 17.5 19.7188 17.5H17.875C17.1875 17.5 16.9688 16.9688 15.7188 15.7188C14.625 14.6562 14.1562 14.5 13.875 14.5C13.3125 14.5 13.4062 14.7188 13.4062 16.8125C13.4062 17.25 13.25 17.5 12.0938 17.5C10.1562 17.5 8 16.3438 6.46875 14.1562C4.1875 10.9375 3.5625 8.53125 3.5625 8.03125C3.5625 7.75 3.6875 7.5 4.1875 7.5H6.03125C6.5 7.5 6.6875 7.71875 6.875 8.21875C7.78125 10.8438 9.28125 13.1562 9.90625 13.1562C10.1562 13.1562 10.25 13.0312 10.25 12.4375V9.71875C10.1875 8.46875 9.53125 8.375 9.53125 7.9375C9.53125 7.71875 9.6875 7.5 10 7.5H12.875C13.2812 7.5 13.4062 7.71875 13.4062 8.1875V11.8438C13.4062 12.2188 13.5938 12.375 13.6875 12.375C13.9375 12.375 14.125 12.2188 14.5625 11.8125C15.875 10.3125 16.8125 8.03125 16.8125 8.03125C16.9375 7.75 17.1562 7.5 17.625 7.5H19.4688C20.0312 7.5 20.125 7.8125 20.0312 8.1875Z" fill="white"/>
</svg>
