<?xml version="1.0" encoding="UTF-8"?>
<svg xmlns="http://www.w3.org/2000/svg" width="383" height="381" viewBox="0 0 383 381" fill="none">
  <path d="M263.117 72.5217L309.704 118.593C329.713 138.381 337.57 167.381 330.286 194.564L313.945 255.551C306.661 282.733 285.357 303.919 258.135 311.052L194.754 327.658C167.983 334.672 139.497 327.039 119.82 307.579L73.2334 261.508C53.2243 241.72 45.3673 212.72 52.6508 185.537L68.9922 124.55C76.2757 97.3678 97.5802 76.1813 124.802 69.0491L188.183 52.4432C214.954 45.4292 243.44 53.0618 263.117 72.5217Z" fill="white" stroke="#F3921A"></path>
  <rect width="112.032" height="115.561" rx="22" transform="matrix(0.863116 -0.505007 0.863116 0.505007 91 211.545)" fill="white" stroke="#F3921A" stroke-width="2"></rect>
  <rect width="102.053" height="105.053" rx="19" transform="matrix(0.863116 -0.505007 0.863116 0.505007 98.9161 209.911)" fill="#F6F6F6"></rect>
  <mask id="path-4-inside-1_1135_5375" fill="white">
    <path fill-rule="evenodd" clip-rule="evenodd" d="M209.867 150.847L209.868 128.547C209.868 128.485 209.867 128.424 209.866 128.363L209.866 122.363C209.866 120.685 208.689 118.644 207.237 117.803L204.778 116.379C204.703 116.332 204.625 116.285 204.546 116.239L189.678 107.63C188.226 106.79 185.872 106.79 184.421 107.63L137.63 134.722C137.369 134.874 137.154 135.042 136.987 135.222C135.846 136.214 135.002 137.896 135.002 139.317L135 195.198C135 196.875 136.177 197.553 137.628 196.713L155.462 186.386L155.461 208.846C155.461 210.524 156.638 211.202 158.089 210.361L207.237 181.9C208.689 181.059 209.866 179.018 209.866 177.34L209.866 175.042C209.867 174.991 209.868 174.94 209.868 174.889L209.867 150.847Z"></path>
  </mask>
  <path fill-rule="evenodd" clip-rule="evenodd" d="M209.867 150.847L209.868 128.547C209.868 128.485 209.867 128.424 209.866 128.363L209.866 122.363C209.866 120.685 208.689 118.644 207.237 117.803L204.778 116.379C204.703 116.332 204.625 116.285 204.546 116.239L189.678 107.63C188.226 106.79 185.872 106.79 184.421 107.63L137.63 134.722C137.369 134.874 137.154 135.042 136.987 135.222C135.846 136.214 135.002 137.896 135.002 139.317L135 195.198C135 196.875 136.177 197.553 137.628 196.713L155.462 186.386L155.461 208.846C155.461 210.524 156.638 211.202 158.089 210.361L207.237 181.9C208.689 181.059 209.866 179.018 209.866 177.34L209.866 175.042C209.867 174.991 209.868 174.94 209.868 174.889L209.867 150.847Z" fill="white"></path>
  <path d="M209.867 150.847L207.867 150.847L207.867 150.847L209.867 150.847ZM209.868 128.547L211.868 128.547V128.547H209.868ZM209.866 128.363L207.866 128.363L207.866 128.379L207.866 128.395L209.866 128.363ZM209.866 122.363L211.866 122.363L211.866 122.363L209.866 122.363ZM207.237 117.803L208.24 116.072L208.24 116.072L207.237 117.803ZM204.778 116.379L203.719 118.075L203.747 118.093L203.776 118.11L204.778 116.379ZM204.546 116.239L205.548 114.509L205.548 114.509L204.546 116.239ZM189.678 107.63L190.68 105.9L190.68 105.9L189.678 107.63ZM184.421 107.63L185.423 109.361L185.423 109.361L184.421 107.63ZM137.63 134.722L138.633 136.453L138.633 136.453L137.63 134.722ZM136.987 135.222L138.3 136.731L138.378 136.662L138.449 136.586L136.987 135.222ZM135.002 139.317L137.002 139.317L135.002 139.317ZM135 195.198L137 195.198L135 195.198ZM137.628 196.713L138.631 198.444L138.631 198.444L137.628 196.713ZM155.462 186.386L157.462 186.386L157.462 182.916L154.459 184.655L155.462 186.386ZM155.461 208.846L157.461 208.846L157.461 208.846L155.461 208.846ZM158.089 210.361L157.087 208.631L157.087 208.631L158.089 210.361ZM207.237 181.9L206.235 180.169L206.235 180.169L207.237 181.9ZM209.866 177.34L207.866 177.34L207.866 177.34L209.866 177.34ZM209.866 175.042L207.867 175.002L207.866 175.022L207.866 175.042L209.866 175.042ZM209.868 174.889L211.868 174.889L211.868 174.889L209.868 174.889ZM211.867 150.847L211.868 128.547L207.868 128.547L207.867 150.847L211.867 150.847ZM211.868 128.547C211.868 128.475 211.867 128.404 211.866 128.332L207.866 128.395C207.867 128.445 207.868 128.496 207.868 128.547H211.868ZM207.866 122.363L207.866 128.363L211.866 128.363L211.866 122.363L207.866 122.363ZM206.235 119.534C206.586 119.737 207.016 120.166 207.363 120.768C207.71 121.37 207.866 121.957 207.866 122.363L211.866 122.363C211.866 121.091 211.433 119.818 210.829 118.77C210.224 117.722 209.34 116.71 208.24 116.072L206.235 119.534ZM203.776 118.11L206.235 119.534L208.24 116.072L205.78 114.648L203.776 118.11ZM205.838 114.683C205.743 114.623 205.647 114.565 205.548 114.509L203.544 117.97C203.604 118.005 203.662 118.04 203.719 118.075L205.838 114.683ZM205.548 114.509L190.68 105.9L188.676 109.361L203.544 117.97L205.548 114.509ZM190.68 105.9C189.578 105.262 188.26 105 187.049 105C185.839 105 184.52 105.262 183.418 105.9L185.423 109.361C185.773 109.159 186.357 109 187.049 109C187.742 109 188.326 109.159 188.676 109.361L190.68 105.9ZM183.418 105.9L136.628 132.992L138.633 136.453L185.423 109.361L183.418 105.9ZM136.628 132.992C136.223 133.226 135.846 133.513 135.525 133.857L138.449 136.586C138.463 136.572 138.515 136.521 138.633 136.453L136.628 132.992ZM135.674 133.713C134.161 135.029 133.002 137.238 133.002 139.317L137.002 139.317C137.002 138.554 137.532 137.398 138.3 136.731L135.674 133.713ZM133.002 139.317L133 195.197L137 195.198L137.002 139.317L133.002 139.317ZM133 195.197C133 196.456 133.457 197.875 134.771 198.632C136.085 199.39 137.542 199.074 138.631 198.444L136.626 194.982C136.459 195.079 136.392 195.078 136.425 195.075C136.471 195.071 136.608 195.074 136.769 195.167C136.929 195.259 137.001 195.376 137.02 195.418C137.035 195.448 137 195.391 137 195.198L133 195.197ZM138.631 198.444L156.464 188.116L154.459 184.655L136.626 194.982L138.631 198.444ZM153.462 186.386L153.461 208.846L157.461 208.846L157.462 186.386L153.462 186.386ZM153.461 208.846C153.461 210.105 153.918 211.523 155.232 212.281C156.546 213.038 158.002 212.723 159.092 212.092L157.087 208.631C156.92 208.727 156.852 208.726 156.886 208.723C156.932 208.719 157.069 208.723 157.23 208.815C157.39 208.908 157.462 209.025 157.481 209.066C157.496 209.097 157.461 209.039 157.461 208.846L153.461 208.846ZM159.092 212.092L208.24 183.631L206.235 180.169L157.087 208.631L159.092 212.092ZM208.24 183.631C209.34 182.993 210.224 181.981 210.829 180.933C211.433 179.885 211.866 178.612 211.866 177.34L207.866 177.34C207.866 177.746 207.71 178.333 207.363 178.935C207.016 179.537 206.586 179.966 206.235 180.169L208.24 183.631ZM211.866 177.34L211.866 175.042L207.866 175.042L207.866 177.34L211.866 177.34ZM207.868 174.889C207.868 174.927 207.867 174.965 207.867 175.002L211.866 175.082C211.867 175.018 211.868 174.953 211.868 174.889H207.868ZM207.867 150.847L207.868 174.889L211.868 174.889L211.867 150.847L207.867 150.847Z" fill="#ED9D21" mask="url(#path-4-inside-1_1135_5375)"></path>
  <rect x="0.865403" y="1.50113" width="25.3056" height="59.9554" rx="2.03743" transform="matrix(0.865371 0.501132 3.17415e-05 1 135.118 135.811)" fill="white" stroke="#ED9D21" stroke-width="2"></rect>
  <rect width="15.0806" height="3.41152" rx="1.70576" transform="matrix(0.865371 0.501132 3.17415e-05 1 141.719 144.259)" fill="#ED9D21"></rect>
  <rect width="15.0806" height="3.41152" rx="1.70576" transform="matrix(0.865371 0.501132 3.17415e-05 1 141.719 149.278)" fill="#ED9D21"></rect>
  <rect width="15.0806" height="3.41152" rx="1.70576" transform="matrix(0.865371 0.501132 3.17415e-05 1 141.719 154.297)" fill="#ED9D21"></rect>
  <rect width="3.20777" height="3.41152" rx="1.60389" transform="matrix(0.865371 0.501132 3.17415e-05 1 137.818 142)" fill="#ED9D21"></rect>
  <rect width="3.20777" height="3.41152" rx="1.60389" transform="matrix(0.865371 0.501132 3.17415e-05 1 137.818 147.019)" fill="#ED9D21"></rect>
  <rect width="3.20777" height="3.41152" rx="1.60389" transform="matrix(0.865371 0.501132 3.17415e-05 1 137.818 152.038)" fill="#ED9D21"></rect>
  <rect width="20.3786" height="9.00064" rx="1" transform="matrix(0.865371 0.501132 3.17415e-05 1 138 187)" fill="#ED9D21"></rect>
  <path d="M161.794 154.917C161.794 152.645 163.431 149.884 165.398 148.84L201.937 129.442C203.795 128.456 205.262 129.373 205.262 131.519L205.26 175.354C205.26 177.626 203.623 180.388 201.657 181.431L165.117 200.829C163.26 201.815 161.793 200.899 161.793 198.752L161.794 154.917Z" fill="#FFF1DF"></path>
  <path d="M160.488 147.824L205.221 121.893" stroke="#ED9D21" stroke-width="2" stroke-linecap="round"></path>
  <g clip-path="url(#clip0_1135_5375)">
    <path d="M211.269 199.085V207.281L211.257 207.546C211.226 208.038 211.046 209.692 210.106 210.298C209.56 210.651 207.197 212.063 205.212 213.236L202.861 213.596V215.26L202.866 215.445L202.895 215.458C202.985 215.842 203.273 216.202 203.731 216.492L210.431 220.296C210.915 220.571 211.456 220.707 211.999 220.707C212.542 220.707 213.106 220.563 213.598 220.274C215.368 219.239 219.457 216.808 220.211 216.324C221.226 215.669 221.512 214.182 221.592 213.379L221.626 213.394V205.088L211.272 199.087L211.269 199.085Z" fill="#ED9D21"></path>
    <path d="M220.126 212.399V204.492L210.309 198.805V206.697L210.3 206.967C210.256 207.617 210.048 209.269 209.025 209.929C208.264 210.42 205.292 212.165 203.535 213.194C202.948 213.538 202.968 214.343 203.867 214.91L210.566 218.711C211.468 219.222 212.571 219.218 213.465 218.692C215.235 217.655 218.092 215.976 218.836 215.497C219.944 214.781 220.099 212.9 220.119 212.394H220.126V212.399Z" fill="white"></path>
    <path d="M211.996 219.363C211.456 219.363 210.913 219.227 210.431 218.95L203.731 215.149C203.166 214.793 202.854 214.321 202.861 213.842C202.868 213.477 203.062 213.158 203.394 212.963C206.424 211.192 208.319 210.062 208.874 209.705C209.788 209.116 209.985 207.583 210.026 206.952L210.038 206.687V198.338L220.392 204.339V212.798L220.358 212.783C220.278 213.586 219.995 215.073 218.977 215.73C218.211 216.224 215.276 217.947 213.596 218.933C213.104 219.22 212.549 219.366 211.996 219.366V219.363ZM210.578 199.277V206.699L210.569 206.982C210.52 207.702 210.29 209.439 209.17 210.162C208.605 210.525 206.705 211.656 203.671 213.433C203.503 213.53 203.409 213.681 203.406 213.851C203.401 214.131 203.627 214.44 204.01 214.681L210.7 218.478C211.516 218.94 212.522 218.933 213.327 218.461C215.004 217.48 217.932 215.759 218.688 215.27C219.704 214.616 219.832 212.752 219.847 212.384L219.854 212.199V204.648L210.578 199.274V199.277Z" fill="#ED9D21"></path>
    <path d="M246.55 163.613L190.257 131.052C189.816 130.796 189.372 130.714 188.965 130.806L188.919 130.745L186.023 132.417L187.678 134.773L187.712 182.746C187.712 184.357 188.669 186.175 189.881 186.875L244.803 220.665L244.98 220.775L245.753 220.444L247.796 219.269L248 219.144V219.108C248.414 218.733 248.639 218.118 248.637 217.346L248.727 167.748C248.727 166.134 247.767 164.319 246.548 163.613H246.55Z" fill="#ED9D21"></path>
    <path d="M244.323 220.278L188.03 187.72C186.939 187.09 186.054 185.396 186.054 183.938L186.018 134.094C186.018 132.636 186.9 131.964 187.988 132.595L244.281 165.153C245.372 165.784 246.257 167.477 246.257 168.935L246.293 217.312C246.293 218.77 245.411 220.906 244.323 220.276V220.278Z" fill="white"></path>
    <path d="M244.715 220.797C244.514 220.797 244.313 220.741 244.122 220.629L187.828 188.07C186.607 187.362 185.649 185.547 185.649 183.936L185.613 134.091C185.613 133.176 185.933 132.463 186.495 132.137C186.983 131.855 187.586 131.892 188.192 132.24L244.485 164.801C245.707 165.506 246.664 167.324 246.664 168.935L246.7 217.312C246.7 218.517 246.167 220.13 245.302 220.634C245.115 220.743 244.917 220.797 244.718 220.797H244.715ZM244.526 219.923C244.657 219.999 244.766 220.001 244.895 219.928C245.406 219.631 245.888 218.361 245.888 217.312L245.852 168.935C245.852 167.631 245.04 166.061 244.08 165.506L187.787 132.948C187.542 132.807 187.193 132.675 186.903 132.843C186.604 133.018 186.425 133.483 186.425 134.091L186.461 183.936C186.461 185.24 187.273 186.81 188.233 187.367L244.524 219.926L244.526 219.923Z" fill="#ED9D21"></path>
    <path d="M242.927 216.071L189.331 185.072C188.849 184.795 188.459 184.045 188.459 183.403L188.442 137.34C188.442 136.695 188.832 136.401 189.312 136.678L242.907 167.677C243.39 167.955 243.78 168.704 243.78 169.347L243.797 215.409C243.797 216.054 243.407 216.351 242.927 216.071Z" fill="#FFF1DF"></path>
    <path d="M243.273 216.582C243.094 216.582 242.905 216.528 242.723 216.424L189.128 185.425C188.524 185.077 188.051 184.189 188.051 183.403L188.034 137.34C188.034 136.854 188.219 136.467 188.536 136.282C188.82 136.116 189.176 136.131 189.513 136.326L243.108 167.324C243.709 167.672 244.185 168.561 244.185 169.347L244.201 215.409C244.201 215.896 244.02 216.283 243.7 216.468C243.569 216.543 243.423 216.582 243.273 216.582ZM243.128 215.718C243.217 215.772 243.278 215.774 243.293 215.764C243.331 215.742 243.392 215.626 243.39 215.409L243.373 169.347C243.373 168.85 243.06 168.234 242.704 168.03L189.108 137.029C189.021 136.978 188.96 136.973 188.943 136.983C188.917 136.997 188.844 137.095 188.846 137.338L188.863 183.4C188.863 183.897 189.176 184.513 189.532 184.719L243.128 215.718Z" fill="#ED9D21"></path>
    <g filter="url(#filter0_d_1135_5375)">
      <path d="M198.875 161.749L222.049 175.007C222.505 175.268 222.786 175.753 222.786 176.278V191.998C222.786 192.739 221.993 193.21 221.343 192.855L198.178 180.221C197.707 179.965 197.414 179.472 197.414 178.936V162.596C197.414 161.847 198.225 161.377 198.875 161.749Z" fill="#D9D9D9"></path>
    </g>
    <path d="M198.072 164.199L222.168 177.62V191.735C222.168 192.106 221.77 192.342 221.445 192.163L198.578 179.588C198.266 179.417 198.072 179.089 198.072 178.733V164.199Z" fill="white"></path>
    <g filter="url(#filter1_d_1135_5375)">
      <path d="M210.911 158.736L234.084 171.994C234.54 172.255 234.821 172.74 234.821 173.265V188.985C234.821 189.726 234.028 190.197 233.378 189.842L210.213 177.208C209.742 176.951 209.45 176.458 209.45 175.922V159.583C209.45 158.833 210.26 158.363 210.911 158.736Z" fill="#F3921A"></path>
    </g>
    <path d="M210.107 161.186L234.203 174.607V188.722C234.203 189.093 233.805 189.328 233.48 189.15L210.613 176.575C210.301 176.403 210.107 176.076 210.107 175.72V161.186Z" fill="white"></path>
  </g>
  <path d="M211.403 237.322L167.704 212.152C167.185 211.851 166.319 211.882 165.734 212.222L147.156 223.016L145.298 222.603V224.478V224.584V224.614C145.309 224.882 145.465 225.117 145.736 225.273L192.713 252.331C192.953 252.468 193.262 252.538 193.588 252.538C193.969 252.538 194.365 252.446 194.68 252.261L218.004 238.748C218.358 238.541 218.561 238.245 218.558 237.933V236.089L211.4 237.322H211.403Z" fill="#ED9D21"></path>
  <path d="M192.869 250.529L145.892 223.471C145.466 223.225 145.518 222.795 146.009 222.511L169.333 208.997C169.823 208.712 170.564 208.682 170.99 208.927L217.968 235.988C218.394 236.234 218.341 236.664 217.851 236.948L194.527 250.462C194.036 250.747 193.296 250.777 192.869 250.532V250.529Z" fill="white"></path>
  <path d="M193.588 251.003C193.265 251.003 192.953 250.936 192.713 250.797L145.736 223.738C145.454 223.577 145.293 223.326 145.293 223.052C145.293 222.742 145.496 222.447 145.853 222.24L169.177 208.726C169.762 208.386 170.626 208.355 171.144 208.657L218.121 235.718C218.403 235.88 218.564 236.131 218.564 236.404C218.564 236.714 218.361 237.01 218.004 237.216L194.68 250.73C194.365 250.914 193.967 251.006 193.585 251.006L193.588 251.003ZM170.277 209.072C170.004 209.072 169.709 209.139 169.489 209.265L146.165 222.779C145.992 222.879 145.914 222.988 145.914 223.052C145.914 223.097 145.964 223.153 146.048 223.2L193.025 250.258C193.354 250.448 193.981 250.415 194.373 250.189L217.698 236.675C217.871 236.574 217.949 236.466 217.949 236.401C217.949 236.357 217.898 236.301 217.818 236.254L170.84 209.195C170.695 209.111 170.495 209.072 170.28 209.072H170.277Z" fill="#ED9D21"></path>
  <path d="M166.183 214.744L164.876 213.991C164.548 213.801 164.589 213.469 164.968 213.251L165.497 212.944C165.876 212.724 166.45 212.702 166.779 212.889L168.085 213.642C168.414 213.832 168.372 214.164 167.993 214.381L167.464 214.688C167.085 214.909 166.511 214.931 166.183 214.744Z" fill="white"></path>
  <path d="M166.74 215.185C166.478 215.185 166.224 215.129 166.027 215.015L164.72 214.261C164.481 214.122 164.344 213.907 164.344 213.67C164.344 213.405 164.514 213.154 164.812 212.981L165.341 212.674C165.821 212.398 166.503 212.373 166.932 212.618L168.238 213.371C168.478 213.511 168.614 213.726 168.614 213.963C168.614 214.228 168.444 214.479 168.146 214.652L167.617 214.959C167.358 215.107 167.043 215.185 166.74 215.185ZM166.336 214.473C166.573 214.61 167.024 214.582 167.305 214.42L167.834 214.113C167.96 214.041 167.99 213.977 167.993 213.963C167.993 213.963 167.974 213.938 167.926 213.913L166.623 213.159C166.386 213.025 165.935 213.048 165.653 213.212L165.124 213.519C164.999 213.592 164.968 213.656 164.965 213.67C164.965 213.67 164.985 213.695 165.032 213.72L166.336 214.473Z" fill="#ED9D21"></path>
  <path d="M169.433 216.621L168.127 215.868C167.798 215.679 167.84 215.347 168.219 215.129L168.748 214.822C169.127 214.602 169.701 214.579 170.027 214.766L171.333 215.52C171.662 215.709 171.62 216.041 171.241 216.259L170.712 216.566C170.333 216.786 169.759 216.808 169.43 216.621H169.433Z" fill="white"></path>
  <path d="M169.99 217.06C169.729 217.06 169.475 217.004 169.277 216.889L167.971 216.136C167.732 215.997 167.595 215.782 167.595 215.545C167.595 215.28 167.765 215.029 168.063 214.856L168.592 214.549C169.071 214.272 169.756 214.247 170.183 214.493L171.489 215.246C171.729 215.386 171.865 215.6 171.865 215.838C171.865 216.103 171.695 216.354 171.397 216.527L170.868 216.834C170.609 216.984 170.294 217.06 169.988 217.06H169.99ZM169.589 216.348C169.826 216.482 170.277 216.457 170.559 216.295L171.088 215.988C171.213 215.916 171.244 215.852 171.247 215.838C171.247 215.838 171.227 215.812 171.18 215.785L169.876 215.031C169.639 214.895 169.188 214.923 168.907 215.084L168.378 215.391C168.252 215.464 168.222 215.528 168.219 215.542C168.219 215.542 168.238 215.567 168.286 215.595L169.589 216.348Z" fill="#ED9D21"></path>
  <path d="M172.684 218.496L171.377 217.743C171.049 217.553 171.091 217.221 171.469 217.004L171.999 216.697C172.377 216.476 172.951 216.454 173.28 216.641L174.586 217.394C174.915 217.584 174.873 217.916 174.494 218.134L173.965 218.44C173.586 218.661 173.012 218.683 172.687 218.496H172.684Z" fill="white"></path>
  <path d="M173.241 218.937C172.979 218.937 172.728 218.881 172.528 218.767L171.221 218.014C170.982 217.877 170.845 217.659 170.845 217.425C170.845 217.16 171.015 216.909 171.313 216.736L171.843 216.429C172.322 216.15 173.007 216.128 173.433 216.373L174.739 217.126C174.979 217.266 175.115 217.481 175.115 217.718C175.115 217.983 174.945 218.234 174.647 218.407L174.118 218.714C173.859 218.862 173.544 218.94 173.241 218.94V218.937ZM172.837 218.228C173.071 218.365 173.525 218.337 173.806 218.175L174.335 217.869C174.461 217.796 174.491 217.732 174.494 217.718C174.494 217.718 174.475 217.693 174.427 217.665L173.124 216.912C172.887 216.778 172.436 216.803 172.155 216.967L171.625 217.274C171.5 217.347 171.469 217.411 171.467 217.425C171.467 217.425 171.486 217.45 171.533 217.475L172.84 218.228H172.837Z" fill="#ED9D21"></path>
  <path d="M175.937 220.371L174.631 219.618C174.302 219.428 174.344 219.096 174.723 218.879L175.252 218.572C175.631 218.351 176.204 218.329 176.533 218.519L177.839 219.272C178.168 219.462 178.126 219.794 177.748 220.011L177.218 220.318C176.84 220.539 176.266 220.561 175.937 220.371Z" fill="white"></path>
  <path d="M176.494 220.812C176.232 220.812 175.979 220.756 175.781 220.642L174.475 219.888C174.235 219.749 174.099 219.534 174.099 219.297C174.099 219.032 174.269 218.781 174.567 218.608L175.096 218.301C175.575 218.025 176.26 218 176.686 218.245L177.993 218.998C178.232 219.138 178.369 219.353 178.369 219.59C178.369 219.855 178.199 220.106 177.901 220.279L177.371 220.586C177.112 220.734 176.798 220.812 176.494 220.812ZM176.09 220.1C176.324 220.234 176.775 220.209 177.06 220.047L177.589 219.741C177.714 219.668 177.745 219.604 177.748 219.59C177.748 219.59 177.728 219.565 177.681 219.54L176.377 218.786C176.14 218.653 175.689 218.678 175.408 218.839L174.879 219.146C174.753 219.219 174.723 219.283 174.72 219.297C174.72 219.297 174.739 219.322 174.787 219.347L176.09 220.1Z" fill="#ED9D21"></path>
  <path d="M179.188 222.249L177.881 221.495C177.553 221.306 177.594 220.974 177.973 220.756L178.502 220.449C178.881 220.229 179.455 220.206 179.781 220.396L181.087 221.149C181.416 221.339 181.374 221.671 180.995 221.889L180.466 222.196C180.087 222.416 179.513 222.438 179.185 222.251L179.188 222.249Z" fill="white"></path>
  <path d="M179.745 222.687C179.483 222.687 179.229 222.631 179.032 222.516L177.728 221.763C177.488 221.624 177.349 221.409 177.349 221.172C177.349 220.907 177.519 220.656 177.817 220.483L178.346 220.176C178.825 219.897 179.508 219.874 179.937 220.12L181.243 220.873C181.483 221.013 181.619 221.228 181.619 221.465C181.619 221.73 181.449 221.981 181.151 222.154L180.622 222.461C180.363 222.611 180.048 222.687 179.745 222.687ZM179.341 221.975C179.575 222.109 180.029 222.084 180.31 221.922L180.839 221.615C180.965 221.543 180.995 221.479 180.998 221.465C180.998 221.465 180.979 221.44 180.931 221.412L179.628 220.658C179.391 220.524 178.94 220.547 178.658 220.714L178.129 221.021C178.004 221.094 177.973 221.158 177.97 221.172C177.97 221.172 177.99 221.197 178.037 221.222L179.341 221.975Z" fill="#ED9D21"></path>
  <path d="M182.438 224.123L181.132 223.37C180.803 223.18 180.845 222.848 181.224 222.631L181.753 222.324C182.132 222.104 182.705 222.081 183.034 222.271L184.34 223.024C184.669 223.214 184.627 223.546 184.249 223.763L183.719 224.07C183.341 224.291 182.767 224.313 182.441 224.126L182.438 224.123Z" fill="white"></path>
  <path d="M182.995 224.564C182.733 224.564 182.48 224.508 182.282 224.394L180.976 223.641C180.736 223.501 180.6 223.286 180.597 223.049C180.597 222.784 180.767 222.533 181.065 222.36L181.594 222.053C182.073 221.774 182.756 221.752 183.185 221.998L184.488 222.751C184.728 222.887 184.864 223.105 184.867 223.339C184.867 223.604 184.697 223.856 184.399 224.028L183.87 224.335C183.611 224.486 183.296 224.561 182.992 224.561L182.995 224.564ZM182.483 222.452C182.285 222.452 182.07 222.5 181.912 222.592L181.382 222.899C181.257 222.971 181.226 223.035 181.224 223.049C181.224 223.049 181.243 223.074 181.29 223.102L182.597 223.856C182.831 223.992 183.282 223.964 183.563 223.8L184.093 223.493C184.218 223.42 184.249 223.356 184.251 223.342C184.251 223.342 184.232 223.32 184.184 223.292L182.878 222.539C182.775 222.48 182.633 222.452 182.483 222.452Z" fill="#ED9D21"></path>
  <path d="M185.688 225.998L184.382 225.245C184.053 225.055 184.095 224.723 184.474 224.506L185.003 224.199C185.382 223.978 185.956 223.956 186.282 224.143L187.588 224.896C187.917 225.086 187.875 225.418 187.496 225.635L186.967 225.942C186.588 226.163 186.014 226.185 185.686 225.998H185.688Z" fill="white"></path>
  <path d="M186.246 226.439C185.984 226.439 185.73 226.383 185.533 226.269L184.226 225.515C183.987 225.379 183.85 225.164 183.847 224.927C183.847 224.662 184.017 224.411 184.315 224.238L184.845 223.931C185.324 223.652 186.009 223.627 186.435 223.875L187.739 224.628C187.978 224.765 188.115 224.983 188.117 225.22C188.117 225.485 187.948 225.736 187.649 225.909L187.12 226.216C186.861 226.366 186.546 226.442 186.243 226.442L186.246 226.439ZM185.733 224.327C185.535 224.327 185.321 224.374 185.159 224.469L184.63 224.776C184.505 224.849 184.474 224.913 184.471 224.927C184.471 224.927 184.491 224.949 184.538 224.977L185.845 225.73C186.076 225.864 186.53 225.839 186.811 225.674L187.34 225.368C187.466 225.295 187.496 225.231 187.499 225.217C187.499 225.217 187.48 225.192 187.432 225.164L186.126 224.411C186.023 224.352 185.881 224.324 185.73 224.324L185.733 224.327Z" fill="#ED9D21"></path>
  <path d="M188.942 227.876L187.635 227.122C187.307 226.933 187.349 226.601 187.727 226.383L188.257 226.076C188.635 225.856 189.209 225.833 189.538 226.02L190.844 226.774C191.173 226.963 191.131 227.295 190.752 227.513L190.223 227.82C189.844 228.04 189.27 228.062 188.945 227.876H188.942Z" fill="white"></path>
  <path d="M189.499 228.314C189.237 228.314 188.986 228.258 188.786 228.143L187.48 227.39C187.24 227.253 187.104 227.036 187.101 226.799C187.101 226.534 187.271 226.283 187.569 226.11L188.098 225.803C188.577 225.527 189.259 225.501 189.688 225.75L190.992 226.503C191.231 226.64 191.371 226.857 191.371 227.094C191.371 227.359 191.201 227.611 190.903 227.784L190.374 228.09C190.117 228.238 189.8 228.316 189.496 228.316L189.499 228.314ZM189.095 227.605C189.332 227.739 189.783 227.714 190.064 227.549L190.594 227.242C190.719 227.17 190.75 227.106 190.752 227.092C190.752 227.092 190.733 227.067 190.685 227.039L189.379 226.285C189.145 226.149 188.691 226.177 188.41 226.338L187.881 226.645C187.755 226.718 187.725 226.782 187.722 226.796C187.722 226.796 187.741 226.818 187.789 226.846L189.095 227.599V227.605Z" fill="#ED9D21"></path>
  <path d="M192.192 229.75L190.886 228.997C190.557 228.807 190.599 228.475 190.978 228.258L191.507 227.951C191.886 227.731 192.46 227.708 192.786 227.895L194.092 228.648C194.421 228.838 194.379 229.17 194 229.388L193.471 229.695C193.092 229.915 192.518 229.937 192.189 229.75H192.192Z" fill="white"></path>
  <path d="M192.749 230.191C192.488 230.191 192.234 230.135 192.036 230.021L190.73 229.268C190.491 229.131 190.354 228.913 190.354 228.676C190.354 228.411 190.524 228.16 190.822 227.987L191.351 227.68C191.83 227.404 192.513 227.379 192.942 227.627L194.245 228.381C194.485 228.517 194.624 228.735 194.624 228.972C194.624 229.237 194.454 229.488 194.156 229.661L193.627 229.968C193.368 230.116 193.053 230.194 192.749 230.194V230.191ZM192.346 229.483C192.58 229.616 193.034 229.591 193.315 229.427L193.844 229.12C193.969 229.047 194 228.983 194.003 228.969C194.003 228.969 193.983 228.944 193.936 228.916L192.632 228.163C192.396 228.026 191.944 228.051 191.663 228.216L191.134 228.523C191.009 228.595 190.978 228.66 190.975 228.674C190.975 228.674 190.995 228.699 191.042 228.727L192.346 229.48V229.483Z" fill="#ED9D21"></path>
  <path d="M195.443 231.625L194.137 230.872C193.808 230.682 193.85 230.35 194.228 230.132L194.758 229.826C195.136 229.605 195.71 229.583 196.036 229.77L197.342 230.523C197.671 230.713 197.629 231.045 197.251 231.262L196.721 231.569C196.342 231.79 195.769 231.812 195.44 231.625H195.443Z" fill="white"></path>
  <path d="M196 232.066C195.738 232.066 195.487 232.01 195.29 231.896L193.983 231.142C193.744 231.006 193.607 230.788 193.607 230.551C193.607 230.286 193.777 230.035 194.075 229.862L194.604 229.555C195.083 229.276 195.766 229.254 196.195 229.499L197.501 230.252C197.741 230.392 197.877 230.607 197.877 230.844C197.877 231.109 197.707 231.36 197.409 231.533L196.88 231.84C196.621 231.988 196.303 232.066 196 232.066ZM195.599 231.357C195.833 231.491 196.287 231.463 196.571 231.301L197.1 230.995C197.225 230.922 197.256 230.858 197.259 230.844C197.259 230.844 197.239 230.822 197.192 230.794L195.888 230.04C195.652 229.904 195.2 229.932 194.919 230.096L194.39 230.403C194.265 230.476 194.234 230.54 194.231 230.554C194.231 230.554 194.251 230.579 194.298 230.607L195.602 231.36L195.599 231.357Z" fill="#ED9D21"></path>
  <path d="M198.794 233.559L197.487 232.805C197.159 232.616 197.2 232.284 197.579 232.066L198.108 231.759C198.487 231.539 199.061 231.516 199.39 231.703L200.696 232.457C201.025 232.646 200.983 232.978 200.604 233.196L200.075 233.503C199.696 233.723 199.122 233.746 198.794 233.559Z" fill="white"></path>
  <path d="M199.351 233.999C199.089 233.999 198.835 233.944 198.638 233.829L197.334 233.076C197.094 232.939 196.955 232.722 196.955 232.484C196.955 232.219 197.125 231.968 197.423 231.795L197.95 231.489C198.429 231.212 199.114 231.187 199.54 231.433L200.846 232.186C201.086 232.323 201.222 232.537 201.225 232.775C201.225 233.04 201.055 233.291 200.757 233.464L200.228 233.771C199.969 233.918 199.654 233.997 199.351 233.997V233.999ZM198.947 233.288C199.181 233.422 199.635 233.397 199.916 233.232L200.445 232.925C200.571 232.853 200.601 232.789 200.604 232.775C200.604 232.775 200.585 232.752 200.537 232.724L199.231 231.971C198.994 231.837 198.543 231.86 198.262 232.027L197.732 232.334C197.607 232.406 197.576 232.471 197.574 232.482C197.574 232.482 197.593 232.507 197.64 232.535L198.944 233.288H198.947Z" fill="#ED9D21"></path>
  <path d="M202.044 235.433L200.738 234.68C200.409 234.49 200.451 234.158 200.83 233.941L201.359 233.634C201.738 233.413 202.312 233.391 202.64 233.581L203.947 234.334C204.275 234.524 204.233 234.856 203.855 235.073L203.325 235.38C202.947 235.601 202.373 235.623 202.044 235.433Z" fill="white"></path>
  <path d="M202.604 235.874C202.342 235.874 202.089 235.818 201.891 235.704L200.588 234.951C200.348 234.814 200.209 234.596 200.209 234.359C200.209 234.094 200.379 233.843 200.677 233.67L201.206 233.363C201.685 233.087 202.367 233.062 202.796 233.31L204.1 234.063C204.339 234.2 204.476 234.415 204.479 234.652C204.479 234.917 204.309 235.168 204.011 235.341L203.481 235.648C203.222 235.796 202.908 235.874 202.604 235.874ZM202.2 235.163C202.434 235.297 202.888 235.274 203.17 235.107L203.699 234.8C203.824 234.727 203.855 234.663 203.858 234.649C203.858 234.649 203.838 234.627 203.791 234.599L202.484 233.846C202.248 233.712 201.796 233.737 201.515 233.899L200.986 234.206C200.86 234.278 200.83 234.342 200.827 234.356C200.827 234.356 200.847 234.381 200.894 234.409L202.197 235.163H202.2Z" fill="#ED9D21"></path>
  <path d="M205.297 237.311L203.991 236.557C203.662 236.368 203.704 236.036 204.083 235.818L204.612 235.511C204.991 235.291 205.565 235.269 205.891 235.455L207.197 236.209C207.526 236.398 207.484 236.73 207.105 236.948L206.576 237.255C206.197 237.475 205.623 237.498 205.295 237.311H205.297Z" fill="white"></path>
  <path d="M205.852 237.749C205.59 237.749 205.339 237.693 205.141 237.579L203.835 236.825C203.596 236.689 203.459 236.474 203.456 236.237C203.456 235.972 203.626 235.721 203.924 235.548L204.453 235.241C204.93 234.965 205.612 234.937 206.044 235.185L207.35 235.938C207.59 236.075 207.726 236.29 207.729 236.527C207.729 236.792 207.559 237.043 207.261 237.216L206.732 237.523C206.473 237.671 206.158 237.749 205.852 237.749ZM205.451 237.04C205.687 237.174 206.139 237.146 206.42 236.984L206.949 236.677C207.074 236.605 207.105 236.541 207.108 236.527C207.108 236.527 207.088 236.505 207.041 236.477L205.735 235.723C205.498 235.589 205.047 235.612 204.765 235.779L204.236 236.086C204.111 236.159 204.08 236.223 204.077 236.237C204.077 236.237 204.097 236.259 204.144 236.287L205.451 237.04Z" fill="#ED9D21"></path>
  <path d="M208.548 239.186L207.242 238.432C206.913 238.243 206.955 237.911 207.333 237.693L207.863 237.386C208.241 237.166 208.815 237.143 209.144 237.33L210.45 238.084C210.779 238.273 210.737 238.605 210.358 238.823L209.829 239.13C209.45 239.35 208.877 239.372 208.551 239.186H208.548Z" fill="white"></path>
  <path d="M209.105 239.626C208.843 239.626 208.59 239.571 208.392 239.456L207.086 238.703C206.846 238.566 206.71 238.351 206.707 238.114C206.707 237.849 206.877 237.598 207.175 237.425L207.704 237.118C208.183 236.839 208.865 236.817 209.294 237.063L210.598 237.816C210.837 237.953 210.974 238.167 210.977 238.404C210.977 238.67 210.807 238.921 210.509 239.094L209.98 239.4C209.721 239.548 209.406 239.626 209.102 239.626H209.105ZM208.592 237.515C208.395 237.515 208.18 237.562 208.019 237.657L207.489 237.964C207.364 238.036 207.334 238.1 207.331 238.114C207.331 238.114 207.35 238.137 207.398 238.165L208.704 238.918C208.935 239.052 209.389 239.027 209.67 238.865L210.2 238.558C210.325 238.485 210.356 238.421 210.358 238.407C210.358 238.407 210.339 238.385 210.292 238.357L208.985 237.604C208.882 237.545 208.74 237.517 208.59 237.517L208.592 237.515Z" fill="#ED9D21"></path>
  <path d="M162.445 216.948L161.074 216.156C160.746 215.966 160.788 215.634 161.166 215.416L162.748 214.498C163.127 214.278 163.701 214.256 164.03 214.443L165.4 215.235C165.729 215.425 165.687 215.757 165.308 215.974L163.726 216.892C163.347 217.113 162.774 217.135 162.445 216.948Z" fill="white"></path>
  <path d="M163.005 217.389C162.743 217.389 162.489 217.333 162.292 217.219L160.921 216.429C160.682 216.29 160.545 216.075 160.545 215.838C160.545 215.573 160.715 215.322 161.013 215.149L162.595 214.231C163.074 213.952 163.757 213.929 164.186 214.178L165.556 214.967C165.796 215.107 165.932 215.322 165.932 215.559C165.932 215.824 165.762 216.075 165.464 216.248L163.882 217.166C163.623 217.313 163.308 217.392 163.005 217.392V217.389ZM163.478 214.627C163.28 214.627 163.066 214.674 162.907 214.769L161.325 215.687C161.2 215.76 161.169 215.824 161.166 215.838C161.166 215.838 161.186 215.863 161.233 215.891L162.606 216.683C162.838 216.817 163.292 216.792 163.573 216.63L165.155 215.712C165.28 215.64 165.311 215.575 165.314 215.561C165.314 215.561 165.294 215.536 165.247 215.508L163.877 214.719C163.773 214.66 163.631 214.632 163.481 214.632L163.478 214.627Z" fill="#ED9D21"></path>
  <path d="M165.698 218.825L164.328 218.033C163.999 217.843 164.041 217.511 164.42 217.294L166.002 216.376C166.381 216.156 166.955 216.133 167.28 216.32L168.651 217.113C168.98 217.302 168.938 217.634 168.559 217.852L166.977 218.77C166.598 218.99 166.024 219.012 165.696 218.825H165.698Z" fill="white"></path>
  <path d="M166.253 219.263C165.991 219.263 165.74 219.208 165.542 219.093L164.169 218.301C163.93 218.162 163.793 217.947 163.793 217.71C163.793 217.445 163.963 217.193 164.261 217.02L165.843 216.103C166.322 215.824 167.005 215.799 167.434 216.047L168.804 216.839C169.043 216.979 169.18 217.193 169.18 217.431C169.18 217.696 169.01 217.947 168.712 218.12L167.13 219.038C166.871 219.188 166.556 219.263 166.25 219.263H166.253ZM166.726 216.502C166.528 216.502 166.314 216.549 166.152 216.644L164.57 217.562C164.445 217.634 164.414 217.698 164.411 217.712C164.411 217.712 164.431 217.737 164.478 217.765L165.851 218.558C166.083 218.692 166.537 218.666 166.818 218.502L168.4 217.584C168.525 217.511 168.556 217.447 168.559 217.433C168.559 217.433 168.539 217.408 168.492 217.38L167.122 216.588C167.021 216.529 166.876 216.502 166.726 216.502Z" fill="#ED9D21"></path>
  <path d="M168.982 220.72L167.612 219.928C167.283 219.738 167.325 219.406 167.704 219.188L169.286 218.27C169.665 218.05 170.238 218.028 170.567 218.215L171.937 219.007C172.266 219.197 172.224 219.529 171.845 219.746L170.263 220.664C169.885 220.884 169.311 220.907 168.982 220.72Z" fill="white"></path>
  <path d="M169.539 221.158C169.277 221.158 169.024 221.102 168.826 220.988L167.453 220.195C167.213 220.059 167.077 219.841 167.077 219.607C167.077 219.342 167.247 219.091 167.545 218.918L169.127 218C169.606 217.724 170.288 217.698 170.717 217.947L172.088 218.736C172.327 218.876 172.464 219.091 172.464 219.328C172.464 219.593 172.294 219.844 171.996 220.017L170.414 220.935C170.155 221.083 169.84 221.161 169.536 221.161L169.539 221.158ZM170.013 218.396C169.815 218.396 169.6 218.443 169.442 218.538L167.86 219.456C167.734 219.529 167.704 219.593 167.701 219.607C167.701 219.607 167.72 219.632 167.768 219.657L169.141 220.449C169.372 220.583 169.826 220.558 170.107 220.396L171.689 219.478C171.815 219.406 171.845 219.342 171.848 219.328C171.848 219.328 171.829 219.303 171.781 219.275L170.411 218.485C170.308 218.427 170.166 218.399 170.015 218.399L170.013 218.396Z" fill="#ED9D21"></path>
  <path d="M172.233 222.595L170.86 221.802C170.531 221.613 170.573 221.281 170.952 221.063L172.534 220.145C172.912 219.925 173.486 219.902 173.812 220.089L175.182 220.882C175.511 221.071 175.469 221.403 175.091 221.621L173.508 222.539C173.13 222.759 172.556 222.782 172.23 222.595H172.233Z" fill="white"></path>
  <path d="M172.79 223.035C172.528 223.035 172.275 222.98 172.077 222.865L170.706 222.073C170.467 221.933 170.33 221.719 170.33 221.482C170.33 221.217 170.5 220.965 170.798 220.792L172.38 219.875C172.859 219.596 173.542 219.573 173.971 219.819L175.341 220.611C175.581 220.751 175.717 220.965 175.717 221.203C175.717 221.468 175.547 221.719 175.249 221.892L173.667 222.809C173.408 222.96 173.093 223.035 172.79 223.035ZM173.263 220.274C173.063 220.274 172.851 220.321 172.69 220.416L171.107 221.334C170.982 221.406 170.951 221.47 170.949 221.484C170.949 221.484 170.968 221.509 171.016 221.535L172.389 222.327C172.623 222.461 173.074 222.436 173.355 222.274L174.937 221.356C175.063 221.283 175.093 221.219 175.096 221.205C175.096 221.205 175.077 221.18 175.029 221.152L173.659 220.36C173.559 220.301 173.417 220.274 173.263 220.274Z" fill="#ED9D21"></path>
  <path d="M175.483 224.469L174.113 223.677C173.784 223.487 173.826 223.155 174.205 222.938L175.787 222.02C176.166 221.8 176.739 221.777 177.065 221.964L178.436 222.756C178.764 222.946 178.723 223.278 178.344 223.496L176.762 224.414C176.383 224.634 175.809 224.656 175.48 224.469H175.483Z" fill="white"></path>
  <path d="M176.043 224.91C175.781 224.91 175.528 224.854 175.33 224.74L173.957 223.948C173.717 223.808 173.581 223.593 173.581 223.356C173.581 223.091 173.751 222.84 174.049 222.667L175.631 221.749C176.11 221.473 176.792 221.448 177.221 221.696L178.592 222.489C178.831 222.625 178.968 222.84 178.97 223.077C178.97 223.342 178.8 223.593 178.502 223.766L176.92 224.684C176.661 224.835 176.347 224.91 176.043 224.91ZM176.517 222.148C176.319 222.148 176.104 222.196 175.946 222.291L174.363 223.208C174.238 223.281 174.207 223.345 174.205 223.359C174.205 223.359 174.224 223.384 174.272 223.412L175.645 224.204C175.876 224.338 176.33 224.313 176.611 224.149L178.193 223.231C178.319 223.158 178.349 223.094 178.352 223.08C178.352 223.08 178.333 223.058 178.285 223.03L176.912 222.238C176.809 222.179 176.667 222.151 176.517 222.151V222.148Z" fill="#ED9D21"></path>
  <path d="M178.77 226.366L177.399 225.574C177.071 225.384 177.113 225.052 177.491 224.835L179.073 223.917C179.452 223.697 180.026 223.674 180.355 223.861L181.725 224.654C182.054 224.843 182.012 225.175 181.633 225.393L180.051 226.311C179.672 226.531 179.098 226.553 178.77 226.366Z" fill="white"></path>
  <path d="M179.327 226.807C179.065 226.807 178.812 226.751 178.614 226.637L177.241 225.845C177.001 225.708 176.865 225.49 176.865 225.253C176.865 224.988 177.035 224.737 177.333 224.564L178.915 223.646C179.394 223.37 180.076 223.345 180.505 223.593L181.876 224.386C182.115 224.522 182.252 224.74 182.252 224.977C182.252 225.242 182.082 225.493 181.784 225.666L180.202 226.584C179.942 226.735 179.628 226.81 179.324 226.81L179.327 226.807ZM179.798 224.045C179.6 224.045 179.385 224.093 179.227 224.185L177.645 225.103C177.519 225.175 177.489 225.239 177.486 225.253C177.486 225.253 177.505 225.278 177.553 225.306L178.926 226.099C179.157 226.233 179.611 226.207 179.892 226.043L181.474 225.125C181.6 225.052 181.63 224.988 181.633 224.974C181.633 224.974 181.614 224.949 181.566 224.921L180.196 224.129C180.093 224.07 179.951 224.043 179.798 224.043V224.045Z" fill="#ED9D21"></path>
  <path d="M182.02 228.241L180.65 227.449C180.321 227.259 180.363 226.927 180.742 226.71L182.324 225.792C182.703 225.571 183.276 225.549 183.602 225.736L184.973 226.528C185.301 226.718 185.26 227.05 184.881 227.267L183.299 228.185C182.92 228.406 182.346 228.428 182.017 228.241H182.02Z" fill="white"></path>
  <path d="M182.577 228.682C182.316 228.682 182.062 228.626 181.864 228.512L180.494 227.719C180.254 227.583 180.118 227.368 180.118 227.131C180.118 226.863 180.288 226.615 180.586 226.442L182.165 225.524C182.644 225.248 183.327 225.223 183.756 225.468L185.126 226.26C185.366 226.397 185.502 226.615 185.502 226.852C185.502 227.117 185.332 227.368 185.034 227.541L183.452 228.459C183.193 228.609 182.878 228.685 182.575 228.685L182.577 228.682ZM183.051 225.92C182.853 225.92 182.639 225.967 182.477 226.06L180.895 226.977C180.77 227.05 180.739 227.114 180.736 227.128C180.736 227.128 180.756 227.15 180.803 227.178L182.176 227.971C182.41 228.104 182.862 228.079 183.143 227.915L184.725 226.997C184.85 226.924 184.881 226.86 184.884 226.846C184.884 226.846 184.864 226.821 184.817 226.793L183.446 226.001C183.343 225.942 183.201 225.914 183.051 225.914V225.92Z" fill="#ED9D21"></path>
  <path d="M185.304 230.135L183.934 229.343C183.605 229.153 183.647 228.821 184.026 228.604L185.608 227.686C185.987 227.466 186.56 227.443 186.889 227.63L188.259 228.422C188.588 228.612 188.546 228.944 188.168 229.162L186.585 230.08C186.207 230.3 185.633 230.322 185.307 230.135H185.304Z" fill="white"></path>
  <path d="M185.861 230.576C185.6 230.576 185.346 230.52 185.148 230.406L183.778 229.614C183.538 229.477 183.402 229.259 183.402 229.022C183.402 228.757 183.572 228.506 183.87 228.333L185.452 227.415C185.931 227.134 186.613 227.114 187.042 227.36L188.413 228.152C188.652 228.291 188.789 228.506 188.789 228.743C188.789 229.008 188.619 229.259 188.321 229.432L186.739 230.35C186.48 230.498 186.165 230.576 185.861 230.576ZM186.335 227.814C186.137 227.814 185.923 227.862 185.764 227.957L184.182 228.874C184.057 228.947 184.026 229.011 184.023 229.025C184.023 229.025 184.043 229.05 184.09 229.078L185.463 229.87C185.694 230.004 186.148 229.979 186.43 229.817L188.012 228.9C188.137 228.827 188.168 228.763 188.17 228.749C188.17 228.749 188.151 228.724 188.104 228.696L186.733 227.904C186.63 227.845 186.488 227.817 186.338 227.817L186.335 227.814Z" fill="#ED9D21"></path>
  <path d="M188.555 232.01L187.185 231.218C186.856 231.028 186.898 230.696 187.276 230.479L188.859 229.561C189.237 229.34 189.811 229.318 190.14 229.505L191.51 230.297C191.839 230.487 191.797 230.819 191.418 231.037L189.836 231.954C189.457 232.175 188.884 232.197 188.558 232.01H188.555Z" fill="white"></path>
  <path d="M189.112 232.451C188.85 232.451 188.597 232.395 188.399 232.281L187.026 231.488C186.786 231.352 186.65 231.134 186.65 230.897C186.65 230.632 186.82 230.381 187.118 230.208L188.7 229.29C189.179 229.008 189.861 228.989 190.29 229.234L191.661 230.027C191.9 230.166 192.037 230.381 192.037 230.618C192.037 230.883 191.867 231.134 191.569 231.307L189.987 232.225C189.728 232.376 189.413 232.451 189.109 232.451H189.112ZM189.586 229.689C189.388 229.689 189.173 229.736 189.015 229.831L187.432 230.749C187.307 230.822 187.276 230.886 187.274 230.9C187.274 230.9 187.293 230.925 187.341 230.953L188.714 231.745C188.945 231.879 189.399 231.854 189.68 231.689L191.262 230.772C191.388 230.699 191.418 230.635 191.421 230.621C191.421 230.621 191.402 230.596 191.354 230.568L189.984 229.776C189.881 229.717 189.739 229.689 189.588 229.689H189.586Z" fill="#ED9D21"></path>
  <path d="M191.805 233.888L190.435 233.095C190.106 232.906 190.148 232.574 190.527 232.356L192.109 231.438C192.488 231.218 193.061 231.196 193.39 231.382L194.761 232.175C195.089 232.364 195.047 232.696 194.669 232.914L193.087 233.832C192.708 234.052 192.134 234.075 191.805 233.888Z" fill="white"></path>
  <path d="M192.365 234.326C192.103 234.326 191.85 234.27 191.652 234.156L190.282 233.363C190.042 233.227 189.903 233.009 189.903 232.772C189.903 232.507 190.073 232.256 190.371 232.083L191.953 231.165C192.429 230.886 193.114 230.861 193.543 231.109L194.914 231.901C195.153 232.038 195.29 232.253 195.293 232.49C195.293 232.755 195.123 233.006 194.825 233.179L193.243 234.097C192.984 234.245 192.669 234.323 192.365 234.323V234.326ZM192.839 231.567C192.638 231.567 192.426 231.614 192.265 231.709L190.683 232.627C190.558 232.699 190.527 232.763 190.524 232.777C190.524 232.777 190.544 232.803 190.591 232.83L191.964 233.623C192.195 233.757 192.649 233.734 192.933 233.567L194.515 232.649C194.641 232.577 194.671 232.512 194.674 232.498C194.674 232.498 194.655 232.476 194.607 232.448L193.237 231.656C193.134 231.597 192.992 231.569 192.841 231.569L192.839 231.567Z" fill="#ED9D21"></path>
  <path d="M195.092 235.782L193.722 234.99C193.393 234.8 193.435 234.468 193.814 234.25L195.396 233.333C195.774 233.112 196.348 233.09 196.677 233.277L198.047 234.069C198.376 234.259 198.334 234.591 197.955 234.808L196.373 235.726C195.994 235.947 195.421 235.969 195.095 235.782H195.092Z" fill="white"></path>
  <path d="M195.649 236.223C195.387 236.223 195.134 236.167 194.936 236.053L193.566 235.26C193.326 235.124 193.19 234.909 193.19 234.672C193.19 234.407 193.36 234.156 193.658 233.983L195.237 233.065C195.716 232.789 196.398 232.763 196.827 233.012L198.198 233.804C198.437 233.941 198.574 234.158 198.574 234.395C198.574 234.661 198.404 234.912 198.106 235.085L196.524 236.002C196.265 236.153 195.95 236.228 195.646 236.228L195.649 236.223ZM196.12 233.461C195.922 233.461 195.708 233.508 195.549 233.6L193.967 234.518C193.842 234.591 193.811 234.655 193.808 234.669C193.808 234.669 193.828 234.691 193.875 234.719L195.248 235.511C195.482 235.645 195.933 235.62 196.215 235.456L197.797 234.538C197.922 234.465 197.953 234.401 197.956 234.387C197.956 234.387 197.936 234.362 197.889 234.334L196.518 233.542C196.415 233.483 196.273 233.455 196.12 233.455V233.461Z" fill="#ED9D21"></path>
  <path d="M198.343 237.657L196.972 236.864C196.643 236.675 196.685 236.343 197.064 236.125L198.646 235.207C199.025 234.987 199.599 234.965 199.927 235.152L201.298 235.944C201.626 236.134 201.585 236.466 201.206 236.683L199.624 237.601C199.245 237.821 198.671 237.844 198.343 237.657Z" fill="white"></path>
  <path d="M198.9 238.098C198.638 238.098 198.387 238.042 198.186 237.927L196.813 237.135C196.574 236.996 196.437 236.781 196.437 236.544C196.437 236.279 196.607 236.028 196.905 235.855L198.485 234.937C198.964 234.661 199.649 234.633 200.075 234.881L201.445 235.673C201.685 235.81 201.821 236.028 201.824 236.265C201.824 236.53 201.654 236.781 201.356 236.954L199.774 237.872C199.515 238.02 199.2 238.098 198.897 238.098H198.9ZM198.496 237.386C198.727 237.52 199.181 237.495 199.465 237.333L201.047 236.415C201.172 236.343 201.203 236.279 201.206 236.265C201.206 236.265 201.186 236.242 201.139 236.215L199.769 235.422C199.535 235.288 199.081 235.311 198.799 235.478L197.217 236.396C197.092 236.468 197.061 236.533 197.058 236.546C197.058 236.546 197.078 236.569 197.125 236.597L198.496 237.389V237.386Z" fill="#ED9D21"></path>
  <path d="M201.593 239.532L200.223 238.739C199.894 238.55 199.936 238.218 200.314 238L201.897 237.082C202.275 236.862 202.849 236.839 203.175 237.026L204.545 237.819C204.874 238.008 204.832 238.34 204.454 238.558L202.871 239.476C202.493 239.696 201.919 239.719 201.59 239.532H201.593Z" fill="white"></path>
  <path d="M202.153 239.972C201.891 239.972 201.638 239.917 201.44 239.802L200.069 239.01C199.83 238.873 199.691 238.656 199.691 238.418C199.691 238.153 199.861 237.902 200.159 237.729L201.741 236.812C202.217 236.533 202.902 236.507 203.331 236.756L204.702 237.548C204.941 237.685 205.078 237.902 205.08 238.139C205.08 238.404 204.91 238.656 204.612 238.829L203.03 239.746C202.771 239.894 202.457 239.97 202.153 239.97V239.972ZM201.749 239.264C201.983 239.398 202.434 239.373 202.721 239.211L204.3 238.293C204.426 238.22 204.456 238.156 204.459 238.142C204.459 238.142 204.44 238.117 204.392 238.089L203.022 237.297C202.785 237.16 202.334 237.188 202.053 237.353L200.471 238.271C200.345 238.343 200.315 238.407 200.312 238.421C200.312 238.421 200.331 238.446 200.379 238.474L201.749 239.267V239.264Z" fill="#ED9D21"></path>
  <path d="M204.877 241.429L203.507 240.636C203.178 240.447 203.22 240.115 203.599 239.897L205.181 238.979C205.559 238.759 206.133 238.736 206.462 238.923L207.832 239.716C208.161 239.905 208.119 240.237 207.74 240.455L206.158 241.373C205.779 241.593 205.206 241.616 204.88 241.429H204.877Z" fill="white"></path>
  <path d="M205.434 241.869C205.172 241.869 204.919 241.814 204.721 241.699L203.348 240.907C203.108 240.767 202.972 240.553 202.972 240.316C202.972 240.05 203.142 239.799 203.44 239.626L205.022 238.709C205.498 238.432 206.183 238.407 206.612 238.653L207.983 239.445C208.222 239.582 208.359 239.797 208.361 240.034C208.361 240.299 208.191 240.55 207.893 240.723L206.311 241.641C206.052 241.791 205.738 241.867 205.434 241.867V241.869ZM205.907 239.108C205.707 239.108 205.492 239.155 205.334 239.25L203.752 240.168C203.626 240.24 203.596 240.304 203.593 240.318C203.593 240.318 203.612 240.341 203.66 240.369L205.033 241.161C205.264 241.295 205.718 241.27 205.999 241.105L207.581 240.187C207.707 240.115 207.737 240.05 207.74 240.037C207.74 240.037 207.721 240.014 207.673 239.986L206.303 239.194C206.2 239.135 206.058 239.108 205.907 239.108Z" fill="#ED9D21"></path>
  <path d="M158.693 219.174L157.323 218.382C156.994 218.192 157.036 217.86 157.415 217.643L158.997 216.725C159.376 216.504 159.949 216.482 160.275 216.669L161.646 217.461C161.974 217.651 161.932 217.983 161.554 218.201L159.972 219.118C159.593 219.339 159.019 219.361 158.693 219.174Z" fill="white"></path>
  <path d="M159.25 219.615C158.988 219.615 158.735 219.559 158.537 219.445L157.167 218.652C156.927 218.513 156.788 218.298 156.788 218.061C156.788 217.796 156.958 217.545 157.256 217.372L158.838 216.454C159.317 216.178 159.999 216.153 160.428 216.398L161.799 217.191C162.038 217.327 162.175 217.545 162.178 217.779C162.178 218.044 162.008 218.295 161.71 218.468L160.128 219.386C159.869 219.537 159.554 219.612 159.247 219.612L159.25 219.615ZM158.849 218.906C159.083 219.04 159.537 219.015 159.818 218.853L161.4 217.935C161.526 217.863 161.556 217.799 161.559 217.785C161.559 217.785 161.54 217.76 161.492 217.735L160.122 216.942C159.885 216.808 159.434 216.831 159.153 216.995L157.571 217.913C157.445 217.986 157.415 218.05 157.412 218.064C157.412 218.064 157.431 218.089 157.479 218.114L158.849 218.906Z" fill="#ED9D21"></path>
  <path d="M161.946 221.052L160.576 220.259C160.247 220.07 160.289 219.738 160.668 219.52L162.25 218.602C162.629 218.382 163.203 218.36 163.529 218.547L164.899 219.339C165.228 219.529 165.186 219.861 164.807 220.078L163.225 220.996C162.846 221.216 162.272 221.239 161.944 221.052H161.946Z" fill="white"></path>
  <path d="M162.504 221.49C162.242 221.49 161.988 221.434 161.79 221.32L160.42 220.527C160.181 220.391 160.044 220.173 160.041 219.939C160.041 219.674 160.211 219.422 160.509 219.249L162.091 218.332C162.57 218.055 163.256 218.03 163.682 218.276L165.052 219.068C165.292 219.205 165.428 219.422 165.431 219.657C165.431 219.922 165.261 220.173 164.963 220.346L163.381 221.264C163.122 221.414 162.807 221.49 162.504 221.49ZM162.1 220.781C162.334 220.915 162.788 220.89 163.069 220.728L164.651 219.81C164.776 219.738 164.807 219.674 164.81 219.66C164.81 219.66 164.79 219.634 164.743 219.609L163.373 218.817C163.139 218.683 162.685 218.708 162.403 218.873L160.821 219.791C160.696 219.863 160.665 219.927 160.662 219.941C160.662 219.941 160.682 219.966 160.729 219.992L162.1 220.784V220.781Z" fill="#ED9D21"></path>
  <path d="M165.23 222.946L163.86 222.154C163.531 221.964 163.573 221.632 163.952 221.414L165.534 220.497C165.913 220.276 166.486 220.254 166.815 220.441L168.186 221.233C168.514 221.423 168.472 221.755 168.094 221.972L166.512 222.89C166.133 223.111 165.559 223.133 165.23 222.946Z" fill="white"></path>
  <path d="M165.787 223.384C165.525 223.384 165.272 223.328 165.074 223.214L163.704 222.422C163.464 222.282 163.325 222.067 163.325 221.83C163.325 221.565 163.495 221.314 163.793 221.141L165.375 220.223C165.854 219.947 166.537 219.922 166.966 220.167L168.336 220.96C168.575 221.096 168.712 221.314 168.715 221.548C168.715 221.813 168.545 222.064 168.247 222.237L166.665 223.155C166.406 223.303 166.091 223.381 165.787 223.381V223.384ZM165.383 222.673C165.62 222.809 166.071 222.781 166.353 222.62L167.935 221.702C168.06 221.629 168.091 221.565 168.094 221.551C168.094 221.551 168.074 221.526 168.027 221.501L166.656 220.709C166.422 220.575 165.968 220.597 165.687 220.762L164.105 221.679C163.98 221.752 163.949 221.816 163.946 221.83C163.946 221.83 163.966 221.855 164.013 221.88L165.383 222.673Z" fill="#ED9D21"></path>
  <path d="M168.481 224.821L167.11 224.028C166.782 223.839 166.823 223.507 167.202 223.289L168.784 222.371C169.163 222.151 169.737 222.129 170.063 222.315L171.433 223.108C171.762 223.297 171.72 223.629 171.341 223.847L169.759 224.765C169.38 224.985 168.807 225.008 168.478 224.821H168.481Z" fill="white"></path>
  <path d="M169.038 225.259C168.776 225.259 168.523 225.203 168.325 225.089L166.954 224.296C166.715 224.16 166.576 223.942 166.576 223.705C166.576 223.44 166.745 223.189 167.044 223.016L168.626 222.098C169.105 221.822 169.787 221.797 170.216 222.042L171.586 222.834C171.826 222.971 171.962 223.186 171.965 223.423C171.965 223.688 171.795 223.939 171.497 224.112L169.915 225.03C169.656 225.178 169.341 225.253 169.038 225.253V225.259ZM168.634 224.55C168.868 224.684 169.319 224.659 169.606 224.497L171.185 223.579C171.311 223.507 171.341 223.443 171.344 223.429C171.344 223.429 171.325 223.406 171.277 223.378L169.907 222.586C169.673 222.452 169.219 222.477 168.938 222.642L167.355 223.56C167.23 223.632 167.199 223.696 167.197 223.71C167.197 223.71 167.216 223.736 167.264 223.763L168.634 224.556V224.55Z" fill="#ED9D21"></path>
  <path d="M171.731 226.695L170.361 225.903C170.032 225.713 170.074 225.381 170.453 225.164L172.035 224.246C172.413 224.026 172.987 224.003 173.313 224.19L174.684 224.983C175.012 225.172 174.97 225.504 174.592 225.722L173.01 226.64C172.631 226.86 172.057 226.882 171.728 226.693L171.731 226.695Z" fill="white"></path>
  <path d="M172.291 227.136C172.029 227.136 171.776 227.08 171.578 226.966L170.208 226.174C169.968 226.037 169.832 225.822 169.829 225.585C169.829 225.32 169.999 225.069 170.297 224.896L171.879 223.978C172.358 223.702 173.043 223.674 173.469 223.922L174.84 224.715C175.079 224.851 175.219 225.069 175.219 225.306C175.219 225.571 175.049 225.822 174.751 225.995L173.168 226.913C172.912 227.061 172.595 227.139 172.291 227.139V227.136ZM171.887 226.425C172.121 226.559 172.575 226.536 172.857 226.369L174.439 225.451C174.564 225.379 174.595 225.314 174.597 225.301C174.597 225.301 174.578 225.275 174.531 225.248L173.16 224.455C172.923 224.321 172.472 224.344 172.191 224.511L170.609 225.429C170.483 225.501 170.453 225.566 170.45 225.58C170.45 225.58 170.469 225.602 170.517 225.63L171.887 226.422V226.425Z" fill="#ED9D21"></path>
  <path d="M175.015 228.593L173.645 227.8C173.316 227.611 173.358 227.279 173.737 227.061L175.319 226.143C175.698 225.923 176.271 225.901 176.6 226.087L177.97 226.88C178.299 227.069 178.257 227.401 177.879 227.619L176.296 228.537C175.918 228.757 175.344 228.78 175.018 228.593H175.015Z" fill="white"></path>
  <path d="M175.572 229.031C175.31 229.031 175.057 228.975 174.859 228.86L173.489 228.068C173.249 227.931 173.11 227.714 173.11 227.477C173.11 227.212 173.28 226.961 173.578 226.788L175.157 225.87C175.639 225.594 176.324 225.571 176.748 225.817L178.118 226.609C178.358 226.746 178.494 226.961 178.497 227.198C178.497 227.463 178.327 227.714 178.029 227.887L176.447 228.805C176.188 228.953 175.873 229.031 175.567 229.031H175.572ZM175.171 228.322C175.405 228.456 175.859 228.431 176.14 228.266L177.723 227.348C177.848 227.276 177.879 227.212 177.881 227.198C177.881 227.198 177.862 227.175 177.814 227.148L176.444 226.355C176.21 226.221 175.759 226.246 175.472 226.408L173.893 227.326C173.767 227.399 173.737 227.463 173.734 227.477C173.734 227.477 173.753 227.502 173.801 227.53L175.171 228.322Z" fill="#ED9D21"></path>
  <path d="M178.269 230.467L176.898 229.675C176.57 229.485 176.611 229.153 176.99 228.936L178.572 228.018C178.951 227.797 179.525 227.775 179.851 227.962L181.221 228.754C181.55 228.944 181.508 229.276 181.129 229.494L179.547 230.411C179.168 230.632 178.595 230.654 178.266 230.467H178.269Z" fill="white"></path>
  <path d="M178.826 230.908C178.564 230.908 178.31 230.852 178.113 230.738L176.742 229.946C176.503 229.809 176.366 229.591 176.363 229.354C176.363 229.089 176.533 228.838 176.831 228.665L178.413 227.747C178.895 227.471 179.58 227.449 180.004 227.694L181.374 228.487C181.614 228.623 181.753 228.841 181.753 229.078C181.753 229.343 181.583 229.594 181.285 229.767L179.703 230.685C179.444 230.833 179.129 230.911 178.826 230.911V230.908ZM178.422 230.199C178.656 230.333 179.11 230.308 179.391 230.144L180.973 229.226C181.098 229.153 181.129 229.089 181.132 229.075C181.132 229.075 181.112 229.05 181.065 229.022L179.695 228.23C179.461 228.093 179.009 228.121 178.723 228.283L177.143 229.201C177.018 229.273 176.987 229.337 176.984 229.351C176.984 229.351 177.004 229.376 177.051 229.404L178.422 230.197V230.199Z" fill="#ED9D21"></path>
  <path d="M181.552 232.362L180.182 231.569C179.853 231.38 179.895 231.048 180.274 230.83L181.856 229.912C182.235 229.692 182.809 229.67 183.137 229.856L184.508 230.649C184.836 230.838 184.795 231.17 184.416 231.388L182.834 232.306C182.455 232.526 181.881 232.549 181.555 232.362H181.552Z" fill="white"></path>
  <path d="M182.109 232.8C181.848 232.8 181.594 232.744 181.396 232.629L180.026 231.837C179.786 231.7 179.647 231.483 179.647 231.246C179.647 230.981 179.817 230.73 180.115 230.557L181.697 229.639C182.176 229.363 182.862 229.335 183.288 229.583L184.658 230.375C184.898 230.512 185.034 230.73 185.037 230.967C185.037 231.232 184.867 231.483 184.569 231.656L182.987 232.574C182.728 232.722 182.413 232.797 182.109 232.797V232.8ZM181.706 232.091C181.94 232.225 182.391 232.2 182.678 232.038L184.257 231.12C184.382 231.048 184.413 230.983 184.416 230.97C184.416 230.97 184.396 230.944 184.349 230.917L182.978 230.124C182.742 229.99 182.291 230.013 182.009 230.18L180.427 231.098C180.302 231.17 180.271 231.235 180.268 231.249C180.268 231.249 180.288 231.274 180.335 231.302L181.706 232.094V232.091Z" fill="#ED9D21"></path>
  <path d="M184.803 234.236L183.432 233.444C183.104 233.254 183.146 232.922 183.524 232.705L185.106 231.787C185.485 231.567 186.059 231.544 186.388 231.731L187.758 232.523C188.087 232.713 188.045 233.045 187.666 233.263L186.084 234.181C185.705 234.401 185.132 234.423 184.803 234.236Z" fill="white"></path>
  <path d="M185.36 234.677C185.098 234.677 184.845 234.621 184.647 234.507L183.277 233.715C183.037 233.578 182.901 233.363 182.898 233.126C182.898 232.861 183.068 232.61 183.366 232.437L184.948 231.519C185.427 231.243 186.112 231.215 186.538 231.463L187.909 232.256C188.148 232.392 188.287 232.61 188.287 232.847C188.287 233.112 188.118 233.363 187.82 233.536L186.237 234.454C185.978 234.602 185.664 234.68 185.36 234.68V234.677ZM184.956 233.969C185.193 234.102 185.644 234.08 185.925 233.913L187.508 232.995C187.633 232.922 187.664 232.858 187.666 232.844C187.666 232.844 187.647 232.819 187.599 232.791L186.229 231.999C185.992 231.865 185.541 231.887 185.26 232.055L183.678 232.973C183.552 233.045 183.522 233.109 183.519 233.123C183.519 233.123 183.538 233.146 183.586 233.173L184.956 233.966V233.969Z" fill="#ED9D21"></path>
  <path d="M188.053 236.114L186.683 235.322C186.354 235.132 186.396 234.8 186.775 234.582L188.357 233.664C188.736 233.444 189.31 233.422 189.636 233.609L191.006 234.401C191.335 234.591 191.293 234.923 190.914 235.14L189.332 236.058C188.953 236.279 188.379 236.301 188.051 236.111L188.053 236.114Z" fill="white"></path>
  <path d="M188.613 236.555C188.351 236.555 188.098 236.499 187.9 236.385L186.53 235.592C186.29 235.455 186.154 235.241 186.151 235.004C186.151 234.739 186.321 234.487 186.619 234.314L188.201 233.397C188.68 233.12 189.365 233.093 189.792 233.341L191.162 234.133C191.401 234.27 191.541 234.487 191.541 234.725C191.541 234.99 191.371 235.241 191.073 235.414L189.491 236.331C189.234 236.479 188.917 236.557 188.613 236.557V236.555ZM188.209 235.843C188.443 235.977 188.897 235.952 189.179 235.787L190.761 234.87C190.886 234.797 190.917 234.733 190.92 234.719C190.92 234.719 190.9 234.694 190.853 234.666L189.482 233.874C189.246 233.74 188.794 233.762 188.513 233.929L186.931 234.847C186.806 234.92 186.775 234.984 186.772 234.998C186.772 234.998 186.792 235.02 186.839 235.048L188.209 235.84V235.843Z" fill="#ED9D21"></path>
  <path d="M191.34 238.008L189.97 237.216C189.641 237.026 189.683 236.694 190.062 236.477L191.644 235.559C192.023 235.338 192.596 235.316 192.925 235.506L194.295 236.298C194.624 236.488 194.582 236.82 194.204 237.037L192.621 237.955C192.243 238.176 191.669 238.198 191.343 238.011L191.34 238.008Z" fill="white"></path>
  <path d="M191.894 238.449C191.633 238.449 191.379 238.393 191.181 238.279L189.811 237.486C189.571 237.35 189.432 237.135 189.432 236.898C189.432 236.633 189.602 236.382 189.9 236.209L191.479 235.291C191.961 235.015 192.647 234.992 193.07 235.238L194.44 236.03C194.68 236.167 194.819 236.385 194.819 236.622C194.819 236.887 194.649 237.138 194.351 237.311L192.769 238.229C192.51 238.376 192.195 238.455 191.889 238.455L191.894 238.449ZM191.493 237.74C191.73 237.874 192.181 237.852 192.463 237.685L194.045 236.767C194.17 236.694 194.201 236.63 194.204 236.616C194.204 236.616 194.184 236.591 194.137 236.563L192.766 235.771C192.53 235.634 192.078 235.659 191.794 235.824L190.215 236.742C190.09 236.814 190.059 236.878 190.056 236.892C190.056 236.892 190.076 236.915 190.123 236.942L191.493 237.735V237.74Z" fill="#ED9D21"></path>
  <path d="M194.591 239.883L193.22 239.091C192.892 238.901 192.933 238.569 193.312 238.351L194.894 237.434C195.273 237.213 195.847 237.191 196.173 237.378L197.543 238.17C197.872 238.36 197.83 238.692 197.451 238.909L195.869 239.827C195.49 240.048 194.917 240.07 194.591 239.88V239.883Z" fill="white"></path>
  <path d="M195.148 240.324C194.886 240.324 194.632 240.268 194.435 240.154L193.064 239.361C192.825 239.225 192.688 239.01 192.685 238.773C192.685 238.508 192.855 238.256 193.153 238.083L194.736 237.166C195.215 236.889 195.9 236.862 196.326 237.11L197.696 237.902C197.936 238.039 198.075 238.256 198.075 238.494C198.075 238.759 197.905 239.01 197.607 239.183L196.028 240.101C195.769 240.248 195.451 240.327 195.151 240.327L195.148 240.324ZM194.744 239.615C194.975 239.746 195.432 239.724 195.713 239.559L197.295 238.641C197.421 238.569 197.451 238.505 197.454 238.494C197.454 238.494 197.435 238.468 197.387 238.441L196.017 237.648C195.78 237.512 195.329 237.537 195.047 237.704L193.465 238.622C193.34 238.694 193.309 238.759 193.307 238.773C193.307 238.773 193.326 238.795 193.373 238.823L194.744 239.615Z" fill="#ED9D21"></path>
  <path d="M197.841 241.758L196.471 240.965C196.142 240.776 196.184 240.444 196.563 240.226L198.145 239.308C198.524 239.088 199.097 239.066 199.423 239.255L200.794 240.048C201.122 240.237 201.081 240.569 200.702 240.787L199.12 241.705C198.741 241.925 198.167 241.947 197.838 241.761L197.841 241.758Z" fill="white"></path>
  <path d="M198.398 242.198C198.136 242.198 197.883 242.143 197.685 242.028L196.315 241.236C196.075 241.099 195.939 240.884 195.936 240.647C195.936 240.382 196.106 240.131 196.404 239.958L197.986 239.04C198.462 238.764 199.145 238.736 199.576 238.985L200.947 239.777C201.186 239.914 201.326 240.131 201.326 240.368C201.326 240.633 201.156 240.884 200.858 241.057L199.278 241.975C199.019 242.123 198.705 242.201 198.401 242.201L198.398 242.198ZM197.994 241.487C198.231 241.621 198.682 241.596 198.964 241.434L200.546 240.516C200.671 240.444 200.702 240.38 200.704 240.366C200.704 240.366 200.685 240.34 200.638 240.313L199.267 239.52C199.03 239.384 198.579 239.409 198.298 239.576L196.716 240.494C196.591 240.566 196.56 240.631 196.557 240.645C196.557 240.645 196.577 240.667 196.624 240.695L197.994 241.487Z" fill="#ED9D21"></path>
  <path d="M201.125 243.655L199.755 242.863C199.426 242.673 199.468 242.341 199.847 242.123L201.429 241.205C201.808 240.985 202.381 240.963 202.71 241.15L204.08 241.942C204.409 242.132 204.367 242.464 203.989 242.681L202.406 243.599C202.028 243.819 201.454 243.842 201.128 243.655H201.125Z" fill="white"></path>
  <path d="M201.682 244.093C201.42 244.093 201.167 244.037 200.969 243.923L199.599 243.13C199.359 242.994 199.223 242.779 199.22 242.542C199.22 242.277 199.39 242.026 199.688 241.853L201.27 240.935C201.749 240.658 202.434 240.631 202.86 240.879L204.231 241.671C204.47 241.808 204.61 242.026 204.61 242.263C204.61 242.528 204.44 242.779 204.142 242.952L202.56 243.87C202.301 244.017 201.986 244.096 201.682 244.096V244.093ZM201.278 243.384C201.512 243.518 201.966 243.493 202.248 243.328L203.83 242.411C203.955 242.338 203.986 242.274 203.988 242.26C203.988 242.26 203.969 242.235 203.922 242.207L202.551 241.415C202.314 241.281 201.863 241.303 201.582 241.47L200 242.388C199.875 242.461 199.844 242.525 199.841 242.539C199.841 242.539 199.861 242.561 199.908 242.589L201.278 243.381V243.384Z" fill="#ED9D21"></path>
  <path d="M157.991 223.253L153.401 220.605C153.072 220.416 153.114 220.084 153.493 219.866L155.075 218.948C155.454 218.728 156.027 218.705 156.356 218.892L160.946 221.54C161.275 221.73 161.233 222.062 160.854 222.279L159.272 223.197C158.893 223.417 158.32 223.44 157.994 223.253H157.991Z" fill="white"></path>
  <path d="M158.548 223.691C158.286 223.691 158.033 223.635 157.835 223.521L153.245 220.873C153.005 220.736 152.869 220.519 152.869 220.285C152.869 220.019 153.039 219.768 153.337 219.595L154.919 218.678C155.398 218.399 156.08 218.376 156.509 218.622L161.099 221.269C161.339 221.406 161.475 221.624 161.478 221.858C161.478 222.123 161.308 222.374 161.01 222.547L159.428 223.465C159.169 223.613 158.854 223.691 158.551 223.691H158.548ZM158.144 222.982C158.381 223.116 158.832 223.091 159.114 222.929L160.696 222.011C160.821 221.939 160.852 221.875 160.854 221.861C160.854 221.861 160.835 221.836 160.788 221.811L156.197 219.163C155.963 219.029 155.509 219.054 155.228 219.219L153.646 220.137C153.521 220.209 153.49 220.273 153.487 220.287C153.487 220.287 153.507 220.312 153.554 220.338L158.144 222.985V222.982Z" fill="#ED9D21"></path>
  <path d="M161.308 225.167L159.938 224.374C159.609 224.185 159.651 223.853 160.03 223.635L161.612 222.717C161.991 222.497 162.565 222.475 162.89 222.662L164.261 223.454C164.59 223.644 164.548 223.976 164.169 224.193L162.587 225.111C162.208 225.331 161.634 225.354 161.308 225.167Z" fill="white"></path>
  <path d="M161.868 225.607C161.606 225.607 161.353 225.552 161.155 225.437L159.785 224.645C159.545 224.508 159.409 224.291 159.409 224.054C159.409 223.789 159.579 223.537 159.877 223.364L161.459 222.447C161.938 222.168 162.62 222.143 163.049 222.391L164.42 223.18C164.659 223.32 164.796 223.535 164.796 223.772C164.796 224.037 164.626 224.288 164.328 224.458L162.748 225.376C162.489 225.527 162.175 225.602 161.871 225.602L161.868 225.607ZM162.342 222.846C162.144 222.846 161.93 222.893 161.768 222.988L160.186 223.906C160.061 223.978 160.03 224.042 160.027 224.056C160.027 224.056 160.047 224.081 160.094 224.109L161.467 224.902C161.698 225.038 162.152 225.01 162.434 224.846L164.016 223.928C164.141 223.855 164.172 223.791 164.175 223.777C164.175 223.777 164.155 223.752 164.108 223.724L162.737 222.935C162.637 222.876 162.492 222.848 162.342 222.848V222.846Z" fill="#ED9D21"></path>
  <path d="M164.562 227.041L163.191 226.249C162.863 226.059 162.904 225.727 163.283 225.51L164.865 224.592C165.244 224.372 165.818 224.349 166.144 224.536L167.514 225.328C167.843 225.518 167.801 225.85 167.422 226.068L165.84 226.986C165.461 227.206 164.888 227.228 164.559 227.041H164.562Z" fill="white"></path>
  <path d="M165.119 227.482C164.857 227.482 164.603 227.426 164.406 227.312L163.032 226.52C162.793 226.383 162.656 226.165 162.656 225.928C162.656 225.663 162.826 225.412 163.124 225.239L164.706 224.321C165.186 224.04 165.868 224.02 166.297 224.266L167.667 225.058C167.907 225.195 168.043 225.412 168.043 225.649C168.043 225.914 167.873 226.165 167.575 226.338L165.993 227.256C165.734 227.407 165.42 227.482 165.116 227.482H165.119ZM165.592 224.72C165.394 224.72 165.18 224.768 165.021 224.863L163.439 225.78C163.314 225.853 163.283 225.917 163.28 225.931C163.28 225.931 163.3 225.956 163.347 225.984L164.72 226.776C164.952 226.91 165.406 226.885 165.687 226.721L167.269 225.803C167.394 225.73 167.425 225.666 167.428 225.652C167.428 225.652 167.408 225.627 167.361 225.599L165.991 224.807C165.887 224.748 165.745 224.72 165.595 224.72H165.592Z" fill="#ED9D21"></path>
  <path d="M167.812 228.919L166.442 228.127C166.113 227.937 166.155 227.605 166.534 227.387L168.116 226.47C168.495 226.249 169.068 226.227 169.397 226.414L170.767 227.206C171.096 227.396 171.054 227.728 170.676 227.945L169.093 228.863C168.715 229.084 168.141 229.106 167.812 228.919Z" fill="white"></path>
  <path d="M168.369 229.357C168.107 229.357 167.854 229.301 167.656 229.187L166.286 228.395C166.046 228.255 165.91 228.04 165.91 227.803C165.91 227.538 166.08 227.287 166.378 227.114L167.96 226.196C168.439 225.917 169.124 225.895 169.55 226.14L170.921 226.933C171.16 227.069 171.297 227.287 171.297 227.524C171.297 227.789 171.127 228.04 170.829 228.213L169.247 229.131C168.988 229.279 168.673 229.357 168.369 229.357ZM168.843 226.598C168.645 226.598 168.431 226.645 168.269 226.74L166.687 227.658C166.562 227.731 166.531 227.795 166.528 227.809C166.528 227.809 166.548 227.831 166.595 227.859L167.968 228.651C168.199 228.785 168.653 228.76 168.937 228.595L170.52 227.678C170.645 227.605 170.675 227.541 170.678 227.527C170.678 227.527 170.659 227.502 170.611 227.474L169.241 226.682C169.138 226.623 168.996 226.595 168.846 226.595L168.843 226.598Z" fill="#ED9D21"></path>
  <path d="M171.096 230.813L169.726 230.021C169.397 229.831 169.439 229.499 169.818 229.282L171.4 228.364C171.778 228.143 172.352 228.121 172.678 228.308L174.049 229.1C174.377 229.29 174.335 229.622 173.957 229.84L172.375 230.757C171.996 230.978 171.422 231 171.096 230.813Z" fill="white"></path>
  <path d="M171.653 231.254C171.391 231.254 171.138 231.198 170.94 231.084L169.57 230.292C169.33 230.152 169.194 229.937 169.194 229.7C169.194 229.435 169.364 229.184 169.662 229.011L171.244 228.093C171.723 227.817 172.405 227.789 172.834 228.037L174.207 228.83C174.447 228.966 174.583 229.184 174.583 229.421C174.583 229.686 174.413 229.937 174.115 230.11L172.533 231.028C172.274 231.179 171.96 231.254 171.656 231.254H171.653ZM172.127 228.492C171.926 228.492 171.714 228.54 171.553 228.632L169.971 229.55C169.845 229.622 169.815 229.686 169.812 229.697C169.812 229.697 169.832 229.723 169.879 229.75L171.252 230.543C171.483 230.677 171.937 230.652 172.219 230.487L173.801 229.569C173.926 229.497 173.957 229.432 173.959 229.418C173.959 229.418 173.94 229.393 173.893 229.365L172.522 228.573C172.422 228.515 172.28 228.487 172.127 228.487V228.492Z" fill="#ED9D21"></path>
  <path d="M174.347 232.688L172.976 231.896C172.648 231.706 172.689 231.374 173.068 231.156L174.65 230.239C175.029 230.018 175.603 229.996 175.929 230.183L177.299 230.975C177.628 231.165 177.586 231.497 177.207 231.714L175.625 232.632C175.246 232.853 174.672 232.875 174.344 232.688H174.347Z" fill="white"></path>
  <path d="M174.904 233.129C174.642 233.129 174.388 233.073 174.191 232.959L172.82 232.166C172.581 232.027 172.444 231.812 172.444 231.575C172.444 231.31 172.614 231.059 172.912 230.886L174.491 229.968C174.97 229.692 175.653 229.667 176.082 229.912L177.452 230.705C177.692 230.844 177.828 231.059 177.828 231.296C177.828 231.561 177.658 231.812 177.36 231.985L175.778 232.903C175.519 233.051 175.204 233.129 174.901 233.129H174.904ZM175.377 230.367C175.179 230.367 174.965 230.414 174.806 230.509L173.224 231.427C173.099 231.5 173.068 231.564 173.065 231.578C173.065 231.578 173.085 231.6 173.132 231.628L174.505 232.42C174.736 232.554 175.19 232.532 175.472 232.367L177.054 231.449C177.179 231.377 177.21 231.313 177.213 231.302C177.213 231.302 177.193 231.276 177.146 231.249L175.775 230.456C175.672 230.398 175.53 230.37 175.38 230.37L175.377 230.367Z" fill="#ED9D21"></path>
  <path d="M177.631 234.582L176.26 233.79C175.932 233.6 175.973 233.268 176.352 233.051L177.934 232.133C178.313 231.913 178.887 231.89 179.213 232.077L180.583 232.869C180.912 233.059 180.87 233.391 180.491 233.609L178.909 234.527C178.53 234.747 177.956 234.769 177.628 234.582H177.631Z" fill="white"></path>
  <path d="M178.19 235.023C177.928 235.023 177.675 234.967 177.477 234.853L176.104 234.061C175.864 233.924 175.728 233.706 175.728 233.469C175.728 233.204 175.898 232.953 176.196 232.78L177.778 231.862C178.257 231.583 178.942 231.561 179.368 231.806L180.739 232.599C180.978 232.735 181.115 232.953 181.115 233.19C181.115 233.455 180.945 233.706 180.647 233.879L179.065 234.797C178.806 234.948 178.491 235.023 178.187 235.023H178.19ZM178.664 232.261C178.466 232.261 178.252 232.309 178.09 232.403L176.508 233.321C176.383 233.394 176.352 233.458 176.349 233.472C176.349 233.472 176.369 233.497 176.416 233.525L177.789 234.317C178.02 234.454 178.474 234.426 178.756 234.262L180.338 233.344C180.463 233.271 180.494 233.207 180.497 233.193C180.497 233.193 180.477 233.168 180.43 233.14L179.059 232.348C178.956 232.289 178.814 232.261 178.664 232.261Z" fill="#ED9D21"></path>
  <path d="M180.884 236.457L179.513 235.665C179.185 235.475 179.227 235.143 179.605 234.926L181.187 234.008C181.566 233.787 182.14 233.765 182.466 233.952L183.836 234.744C184.165 234.934 184.123 235.266 183.744 235.484L182.162 236.401C181.784 236.622 181.21 236.644 180.881 236.454L180.884 236.457Z" fill="white"></path>
  <path d="M181.441 236.898C181.179 236.898 180.926 236.842 180.728 236.728L179.355 235.935C179.115 235.796 178.979 235.581 178.979 235.344C178.979 235.079 179.148 234.828 179.446 234.655L181.029 233.737C181.505 233.461 182.19 233.436 182.619 233.681L183.989 234.474C184.229 234.61 184.365 234.828 184.365 235.065C184.365 235.33 184.196 235.581 183.897 235.754L182.315 236.672C182.056 236.823 181.742 236.898 181.438 236.898H181.441ZM181.914 234.136C181.714 234.136 181.502 234.183 181.341 234.278L179.758 235.196C179.633 235.269 179.602 235.333 179.6 235.347C179.6 235.347 179.619 235.369 179.667 235.397L181.04 236.189C181.271 236.323 181.725 236.298 182.006 236.133L183.588 235.216C183.714 235.143 183.744 235.079 183.747 235.065C183.747 235.065 183.728 235.04 183.68 235.012L182.31 234.22C182.207 234.161 182.065 234.133 181.914 234.133V234.136Z" fill="#ED9D21"></path>
  <path d="M184.134 238.335L182.764 237.542C182.435 237.353 182.477 237.021 182.856 236.803L184.438 235.885C184.817 235.665 185.39 235.643 185.716 235.829L187.087 236.622C187.415 236.812 187.374 237.143 186.995 237.361L185.413 238.279C185.034 238.499 184.46 238.522 184.131 238.332L184.134 238.335Z" fill="white"></path>
  <path d="M184.691 238.773C184.429 238.773 184.176 238.717 183.978 238.603L182.608 237.81C182.368 237.674 182.229 237.456 182.229 237.219C182.229 236.954 182.399 236.703 182.697 236.53L184.279 235.612C184.758 235.336 185.441 235.311 185.869 235.559L187.24 236.351C187.479 236.488 187.616 236.703 187.619 236.94C187.619 237.205 187.449 237.456 187.151 237.629L185.569 238.547C185.31 238.695 184.995 238.773 184.691 238.773ZM185.165 236.014C184.967 236.014 184.753 236.061 184.591 236.153L183.009 237.071C182.884 237.143 182.853 237.208 182.85 237.222C182.85 237.222 182.87 237.247 182.917 237.275L184.29 238.067C184.521 238.201 184.975 238.178 185.259 238.011L186.842 237.093C186.967 237.021 186.998 236.957 187 236.943C187 236.943 186.981 236.92 186.933 236.892L185.563 236.1C185.46 236.041 185.318 236.014 185.165 236.014Z" fill="#ED9D21"></path>
  <path d="M187.418 240.229L186.048 239.437C185.719 239.247 185.761 238.915 186.14 238.697L187.722 237.779C188.101 237.559 188.674 237.537 189.003 237.724L190.374 238.516C190.702 238.706 190.66 239.038 190.282 239.255L188.7 240.173C188.321 240.394 187.747 240.416 187.421 240.229H187.418Z" fill="white"></path>
  <path d="M187.975 240.67C187.713 240.67 187.463 240.614 187.265 240.5L185.892 239.707C185.652 239.568 185.516 239.353 185.516 239.116C185.516 238.851 185.686 238.6 185.984 238.427L187.566 237.509C188.045 237.227 188.73 237.208 189.156 237.453L190.527 238.245C190.766 238.385 190.903 238.6 190.903 238.837C190.903 239.102 190.733 239.353 190.435 239.526L188.853 240.444C188.594 240.592 188.276 240.67 187.975 240.67ZM188.449 237.908C188.251 237.908 188.037 237.955 187.878 238.05L186.296 238.968C186.17 239.04 186.14 239.105 186.137 239.116C186.137 239.116 186.156 239.141 186.204 239.169L187.577 239.961C187.808 240.095 188.262 240.07 188.544 239.905L190.126 238.987C190.251 238.915 190.282 238.851 190.284 238.84C190.284 238.84 190.265 238.814 190.218 238.787L188.847 237.994C188.744 237.936 188.602 237.908 188.452 237.908H188.449Z" fill="#ED9D21"></path>
  <path d="M190.669 242.104L189.298 241.311C188.97 241.122 189.011 240.79 189.39 240.572L190.972 239.654C191.351 239.434 191.925 239.411 192.251 239.598L193.621 240.391C193.95 240.58 193.908 240.912 193.529 241.13L191.947 242.048C191.568 242.268 190.995 242.291 190.666 242.101L190.669 242.104Z" fill="white"></path>
  <path d="M191.229 242.544C190.967 242.544 190.713 242.489 190.515 242.374L189.142 241.582C188.903 241.443 188.766 241.228 188.766 240.991C188.766 240.726 188.936 240.474 189.234 240.301L190.816 239.384C191.295 239.105 191.978 239.082 192.407 239.328L193.777 240.12C194.017 240.257 194.153 240.472 194.156 240.709C194.156 240.974 193.986 241.225 193.688 241.398L192.106 242.316C191.847 242.464 191.532 242.539 191.226 242.539L191.229 242.544ZM191.702 239.785C191.502 239.785 191.287 239.833 191.128 239.928L189.546 240.845C189.421 240.918 189.39 240.982 189.387 240.996C189.387 240.996 189.407 241.018 189.454 241.046L190.827 241.839C191.061 241.975 191.515 241.947 191.797 241.786L193.376 240.868C193.501 240.795 193.532 240.731 193.535 240.717C193.535 240.717 193.515 240.695 193.468 240.667L192.098 239.875C191.995 239.816 191.852 239.788 191.702 239.788V239.785Z" fill="#ED9D21"></path>
  <path d="M193.922 243.981L192.552 243.189C192.223 242.999 192.265 242.667 192.643 242.45L194.226 241.532C194.604 241.312 195.178 241.289 195.507 241.479L196.877 242.271C197.206 242.461 197.164 242.793 196.785 243.011L195.203 243.928C194.824 244.149 194.251 244.171 193.922 243.981Z" fill="white"></path>
  <path d="M194.479 244.419C194.217 244.419 193.964 244.363 193.766 244.249L192.396 243.457C192.156 243.32 192.017 243.102 192.017 242.865C192.017 242.6 192.187 242.349 192.485 242.176L194.067 241.258C194.546 240.979 195.228 240.954 195.657 241.203L197.028 241.995C197.267 242.132 197.404 242.346 197.406 242.584C197.406 242.849 197.237 243.1 196.939 243.273L195.356 244.191C195.097 244.338 194.783 244.416 194.479 244.416V244.419ZM194.953 241.66C194.752 241.66 194.54 241.708 194.379 241.802L192.797 242.72C192.671 242.793 192.641 242.857 192.638 242.871C192.638 242.871 192.657 242.896 192.705 242.924L194.078 243.716C194.309 243.85 194.763 243.825 195.047 243.66L196.629 242.743C196.755 242.67 196.785 242.606 196.788 242.592C196.788 242.592 196.769 242.57 196.721 242.542L195.351 241.749C195.248 241.691 195.106 241.663 194.955 241.663L194.953 241.66Z" fill="#ED9D21"></path>
  <path d="M193.41 248.077L192.039 247.284C191.711 247.095 191.752 246.763 192.131 246.545L197.51 243.426C197.889 243.206 198.462 243.183 198.788 243.37L200.159 244.163C200.487 244.352 200.446 244.684 200.067 244.902L194.688 248.021C194.309 248.241 193.736 248.264 193.407 248.077H193.41Z" fill="white"></path>
  <path d="M193.967 248.517C193.705 248.517 193.451 248.462 193.254 248.347L191.883 247.555C191.644 247.418 191.507 247.203 191.504 246.966C191.504 246.701 191.674 246.45 191.972 246.277L197.351 243.158C197.83 242.882 198.512 242.857 198.941 243.105L200.312 243.898C200.551 244.034 200.688 244.252 200.688 244.489C200.688 244.754 200.518 245.005 200.22 245.178L194.841 248.297C194.585 248.445 194.267 248.523 193.964 248.523L193.967 248.517ZM193.563 247.806C193.797 247.94 194.248 247.915 194.532 247.75L199.911 244.631C200.036 244.559 200.067 244.495 200.069 244.481C200.069 244.481 200.05 244.456 200.002 244.428L198.632 243.635C198.395 243.499 197.944 243.524 197.663 243.688L192.284 246.807C192.159 246.88 192.128 246.944 192.126 246.958C192.126 246.958 192.145 246.98 192.192 247.008L193.563 247.8V247.806Z" fill="#ED9D21"></path>
  <path d="M150.977 223.596L149.607 222.804C149.278 222.614 149.32 222.282 149.699 222.064L151.281 221.147C151.66 220.926 152.234 220.904 152.56 221.091L153.93 221.883C154.259 222.073 154.217 222.405 153.838 222.622L152.256 223.54C151.877 223.761 151.303 223.783 150.975 223.596H150.977Z" fill="white"></path>
  <path d="M151.535 224.037C151.273 224.037 151.019 223.981 150.821 223.867L149.451 223.074C149.212 222.938 149.075 222.72 149.072 222.486C149.072 222.221 149.242 221.97 149.54 221.797L151.122 220.879C151.601 220.6 152.287 220.577 152.713 220.823L154.083 221.615C154.323 221.752 154.459 221.97 154.462 222.204C154.462 222.469 154.292 222.72 153.994 222.893L152.412 223.811C152.153 223.959 151.838 224.037 151.535 224.037ZM151.131 223.328C151.365 223.462 151.819 223.437 152.1 223.272L153.682 222.355C153.807 222.282 153.838 222.218 153.841 222.204C153.841 222.204 153.821 222.179 153.774 222.154L152.404 221.361C152.167 221.227 151.716 221.253 151.434 221.417L149.852 222.335C149.727 222.408 149.696 222.472 149.693 222.486C149.693 222.486 149.713 222.511 149.76 222.536L151.131 223.328Z" fill="#ED9D21"></path>
  <path d="M154.228 225.474L152.858 224.681C152.529 224.492 152.571 224.16 152.95 223.942L154.532 223.024C154.91 222.804 155.484 222.781 155.813 222.968L157.183 223.761C157.512 223.95 157.47 224.282 157.091 224.5L155.509 225.418C155.131 225.638 154.557 225.661 154.231 225.474H154.228Z" fill="white"></path>
  <path d="M154.785 225.912C154.523 225.912 154.27 225.856 154.072 225.741L152.702 224.949C152.462 224.812 152.326 224.598 152.323 224.36C152.323 224.095 152.493 223.844 152.791 223.671L154.373 222.754C154.852 222.477 155.537 222.452 155.963 222.698L157.334 223.49C157.573 223.627 157.712 223.842 157.712 224.079C157.712 224.344 157.542 224.595 157.244 224.768L155.665 225.686C155.406 225.833 155.091 225.912 154.788 225.912H154.785ZM154.381 225.203C154.618 225.34 155.069 225.312 155.35 225.15L156.932 224.232C157.058 224.16 157.088 224.095 157.091 224.081C157.091 224.081 157.072 224.059 157.024 224.031L155.654 223.239C155.417 223.105 154.966 223.13 154.685 223.292L153.103 224.21C152.977 224.282 152.947 224.347 152.944 224.36C152.944 224.36 152.963 224.383 153.011 224.411L154.381 225.203Z" fill="#ED9D21"></path>
  <path d="M157.512 227.368L156.142 226.576C155.813 226.386 155.855 226.054 156.234 225.836L157.816 224.918C158.194 224.698 158.768 224.676 159.097 224.865L160.467 225.658C160.796 225.847 160.754 226.179 160.375 226.397L158.793 227.315C158.414 227.535 157.841 227.558 157.512 227.371V227.368Z" fill="white"></path>
  <path d="M158.069 227.806C157.807 227.806 157.554 227.75 157.356 227.636L155.985 226.843C155.746 226.707 155.609 226.492 155.607 226.255C155.607 225.99 155.777 225.739 156.075 225.566L157.657 224.648C158.136 224.372 158.821 224.344 159.247 224.592L160.618 225.384C160.857 225.521 160.994 225.736 160.996 225.973C160.996 226.238 160.826 226.489 160.528 226.662L158.946 227.58C158.687 227.728 158.373 227.806 158.066 227.806H158.069ZM157.665 227.097C157.902 227.231 158.353 227.206 158.634 227.041L160.216 226.124C160.342 226.051 160.372 225.987 160.375 225.973C160.375 225.973 160.356 225.951 160.308 225.923L158.938 225.13C158.701 224.997 158.25 225.019 157.969 225.186L156.387 226.104C156.261 226.177 156.231 226.241 156.228 226.255C156.228 226.255 156.247 226.277 156.295 226.305L157.665 227.097Z" fill="#ED9D21"></path>
  <path d="M160.765 229.243L159.395 228.45C159.066 228.261 159.108 227.929 159.487 227.711L161.069 226.793C161.448 226.573 162.022 226.551 162.347 226.737L163.718 227.53C164.047 227.719 164.005 228.051 163.626 228.269L162.044 229.187C161.665 229.407 161.091 229.43 160.765 229.243Z" fill="white"></path>
  <path d="M161.322 229.683C161.06 229.683 160.807 229.628 160.609 229.513L159.239 228.721C158.999 228.584 158.863 228.367 158.86 228.13C158.86 227.864 159.03 227.613 159.328 227.44L160.91 226.523C161.389 226.246 162.074 226.218 162.5 226.467L163.871 227.259C164.11 227.396 164.25 227.613 164.25 227.851C164.25 228.116 164.08 228.367 163.782 228.54L162.2 229.457C161.941 229.605 161.626 229.683 161.322 229.683ZM160.918 228.975C161.152 229.106 161.606 229.084 161.888 228.919L163.47 228.001C163.595 227.929 163.626 227.864 163.629 227.851C163.629 227.851 163.609 227.825 163.562 227.798L162.191 227.005C161.955 226.871 161.503 226.894 161.222 227.061L159.64 227.979C159.515 228.051 159.484 228.116 159.481 228.13C159.481 228.13 159.501 228.155 159.548 228.183L160.918 228.975Z" fill="#ED9D21"></path>
  <path d="M173.834 236.784L162.643 230.328C162.314 230.138 162.356 229.806 162.735 229.589L164.317 228.671C164.695 228.45 165.269 228.428 165.598 228.615L176.789 235.071C177.118 235.26 177.076 235.592 176.697 235.81L175.115 236.728C174.737 236.948 174.163 236.971 173.837 236.784H173.834Z" fill="white"></path>
  <path d="M174.394 237.224C174.132 237.224 173.879 237.169 173.681 237.054L162.489 230.599C162.25 230.462 162.113 230.244 162.11 230.007C162.11 229.742 162.28 229.491 162.578 229.318L164.161 228.4C164.64 228.124 165.322 228.099 165.751 228.347L176.942 234.803C177.182 234.94 177.321 235.157 177.321 235.394C177.321 235.659 177.151 235.91 176.853 236.083L175.271 237.001C175.015 237.149 174.697 237.227 174.394 237.227V237.224ZM173.99 236.513C174.224 236.647 174.675 236.622 174.959 236.457L176.541 235.539C176.667 235.467 176.697 235.403 176.7 235.389C176.7 235.389 176.681 235.364 176.633 235.336L165.442 228.88C165.205 228.743 164.754 228.768 164.47 228.933L162.89 229.851C162.765 229.923 162.734 229.988 162.732 230.002C162.732 230.002 162.751 230.027 162.798 230.055L173.99 236.51V236.513Z" fill="#ED9D21"></path>
  <path d="M177.087 238.658L175.717 237.866C175.388 237.676 175.43 237.344 175.809 237.127L177.391 236.209C177.77 235.988 178.344 235.966 178.672 236.153L180.043 236.945C180.371 237.135 180.329 237.467 179.951 237.684L178.369 238.602C177.99 238.823 177.416 238.845 177.09 238.658H177.087Z" fill="white"></path>
  <path d="M177.644 239.099C177.383 239.099 177.129 239.043 176.931 238.929L175.561 238.137C175.321 238 175.185 237.782 175.182 237.545C175.182 237.28 175.352 237.029 175.65 236.856L177.232 235.938C177.714 235.662 178.399 235.64 178.823 235.885L180.193 236.677C180.433 236.814 180.572 237.032 180.572 237.269C180.572 237.534 180.402 237.785 180.104 237.958L178.522 238.876C178.266 239.024 177.948 239.102 177.644 239.102V239.099ZM177.241 238.388C177.475 238.521 177.926 238.496 178.21 238.332L179.792 237.414C179.917 237.341 179.948 237.277 179.951 237.263C179.951 237.263 179.931 237.238 179.884 237.21L178.513 236.418C178.277 236.284 177.825 236.309 177.541 236.471L175.962 237.389C175.837 237.461 175.806 237.526 175.803 237.539C175.803 237.539 175.823 237.565 175.87 237.592L177.241 238.385V238.388Z" fill="#ED9D21"></path>
  <path d="M180.338 240.536L178.967 239.743C178.639 239.554 178.68 239.222 179.059 239.004L180.641 238.086C181.02 237.866 181.594 237.844 181.923 238.031L183.293 238.823C183.622 239.013 183.58 239.345 183.201 239.562L181.619 240.48C181.24 240.7 180.666 240.723 180.338 240.536Z" fill="white"></path>
  <path d="M180.895 240.977C180.633 240.977 180.38 240.921 180.182 240.806L178.811 240.014C178.572 239.877 178.435 239.66 178.433 239.423C178.433 239.158 178.603 238.906 178.901 238.734L180.483 237.816C180.965 237.539 181.647 237.512 182.073 237.76L183.444 238.552C183.683 238.689 183.822 238.906 183.822 239.144C183.822 239.409 183.652 239.66 183.354 239.833L181.772 240.751C181.516 240.898 181.199 240.977 180.895 240.977ZM180.491 240.265C180.725 240.399 181.176 240.374 181.46 240.209L183.042 239.291C183.168 239.219 183.198 239.155 183.201 239.141C183.201 239.141 183.182 239.116 183.134 239.088L181.764 238.296C181.53 238.162 181.079 238.184 180.792 238.351L179.213 239.269C179.087 239.342 179.057 239.406 179.054 239.42C179.054 239.42 179.073 239.442 179.121 239.47L180.491 240.262V240.265Z" fill="#ED9D21"></path>
  <path d="M183.622 242.43L182.251 241.638C181.923 241.448 181.964 241.116 182.343 240.899L183.925 239.981C184.304 239.76 184.878 239.738 185.207 239.925L186.577 240.717C186.906 240.907 186.864 241.239 186.485 241.457L184.903 242.374C184.524 242.595 183.95 242.617 183.624 242.43H183.622Z" fill="white"></path>
  <path d="M184.179 242.871C183.917 242.871 183.663 242.815 183.466 242.701L182.095 241.908C181.856 241.772 181.719 241.557 181.716 241.32C181.716 241.055 181.886 240.804 182.184 240.631L183.767 239.713C184.246 239.437 184.931 239.409 185.357 239.657L186.727 240.449C186.967 240.586 187.106 240.804 187.106 241.041C187.106 241.306 186.936 241.557 186.638 241.73L185.059 242.648C184.8 242.796 184.485 242.874 184.182 242.874L184.179 242.871ZM183.775 242.162C184.012 242.299 184.463 242.271 184.744 242.109L186.326 241.191C186.452 241.119 186.482 241.055 186.485 241.041C186.485 241.041 186.466 241.016 186.418 240.988L185.048 240.196C184.811 240.062 184.36 240.084 184.078 240.251L182.496 241.169C182.371 241.242 182.34 241.306 182.338 241.32C182.338 241.32 182.357 241.342 182.404 241.37L183.775 242.162Z" fill="#ED9D21"></path>
  <path d="M186.872 244.305L185.502 243.513C185.173 243.323 185.215 242.991 185.594 242.773L187.176 241.855C187.555 241.635 188.129 241.613 188.454 241.8L189.825 242.592C190.153 242.782 190.112 243.114 189.733 243.331L188.151 244.249C187.772 244.469 187.198 244.492 186.87 244.305H186.872Z" fill="white"></path>
  <path d="M187.432 244.746C187.17 244.746 186.917 244.69 186.719 244.576L185.349 243.783C185.109 243.646 184.973 243.432 184.97 243.195C184.97 242.93 185.14 242.678 185.438 242.505L187.02 241.588C187.499 241.309 188.181 241.286 188.61 241.532L189.981 242.324C190.22 242.461 190.36 242.678 190.36 242.916C190.36 243.181 190.19 243.432 189.892 243.605L188.31 244.523C188.053 244.67 187.736 244.748 187.432 244.748V244.746ZM187.028 244.037C187.262 244.171 187.713 244.146 187.998 243.981L189.58 243.063C189.705 242.991 189.736 242.927 189.738 242.913C189.738 242.913 189.719 242.888 189.672 242.86L188.301 242.067C188.064 241.931 187.613 241.956 187.332 242.123L185.75 243.041C185.624 243.114 185.594 243.178 185.591 243.192C185.591 243.192 185.611 243.214 185.658 243.242L187.028 244.034V244.037Z" fill="#ED9D21"></path>
  <path d="M190.125 246.18L188.755 245.387C188.426 245.198 188.468 244.866 188.847 244.648L190.429 243.73C190.808 243.51 191.382 243.487 191.71 243.674L193.081 244.467C193.409 244.656 193.368 244.988 192.989 245.206L191.407 246.124C191.028 246.344 190.454 246.367 190.128 246.18H190.125Z" fill="white"></path>
  <path d="M190.683 246.62C190.421 246.62 190.167 246.565 189.97 246.45L188.596 245.658C188.357 245.521 188.22 245.304 188.22 245.066C188.22 244.801 188.39 244.55 188.688 244.377L190.27 243.46C190.75 243.178 191.432 243.158 191.861 243.404L193.231 244.196C193.471 244.333 193.607 244.55 193.607 244.787C193.607 245.053 193.437 245.304 193.139 245.477L191.557 246.394C191.298 246.545 190.984 246.62 190.68 246.62H190.683ZM191.156 243.858C190.958 243.858 190.744 243.906 190.585 244.001L189.003 244.919C188.878 244.991 188.847 245.055 188.844 245.069C188.844 245.069 188.864 245.094 188.911 245.122L190.284 245.915C190.516 246.048 190.97 246.023 191.251 245.859L192.833 244.941C192.958 244.868 192.989 244.804 192.992 244.79C192.992 244.79 192.972 244.765 192.925 244.737L191.554 243.945C191.451 243.886 191.309 243.858 191.159 243.858H191.156Z" fill="#ED9D21"></path>
  <path d="M172.389 211.686C172.389 212.108 171.86 212.451 171.205 212.451C170.55 212.451 170.021 212.11 170.021 211.686C170.021 211.262 170.55 210.922 171.205 210.922C171.86 210.922 172.389 211.262 172.389 211.686Z" fill="white"></path>
  <path d="M171.205 212.76C170.366 212.76 169.709 212.289 169.709 211.686C169.709 211.084 170.366 210.612 171.205 210.612C172.043 210.612 172.698 211.084 172.698 211.686C172.698 212.289 172.04 212.76 171.205 212.76ZM171.205 211.234C170.706 211.234 170.33 211.474 170.33 211.686C170.33 211.898 170.703 212.138 171.205 212.138C171.706 212.138 172.077 211.898 172.077 211.686C172.077 211.474 171.703 211.234 171.205 211.234Z" fill="#ED9D21"></path>
  <path d="M174.547 212.978C174.547 213.399 174.018 213.742 173.363 213.742C172.709 213.742 172.18 213.402 172.18 212.978C172.18 212.554 172.709 212.214 173.363 212.214C174.018 212.214 174.547 212.554 174.547 212.978Z" fill="white"></path>
  <path d="M173.363 214.052C172.525 214.052 171.868 213.581 171.868 212.978C171.868 212.375 172.525 211.904 173.363 211.904C174.202 211.904 174.856 212.375 174.856 212.978C174.856 213.581 174.199 214.052 173.363 214.052ZM173.363 212.526C172.865 212.526 172.489 212.766 172.489 212.978C172.489 213.19 172.862 213.43 173.363 213.43C173.865 213.43 174.235 213.19 174.235 212.978C174.235 212.766 173.862 212.526 173.363 212.526Z" fill="#ED9D21"></path>
  <defs>
    <filter id="filter0_d_1135_5375" x="197.414" y="161.131" width="27.3243" height="31.8451" filterUnits="userSpaceOnUse" color-interpolation-filters="sRGB">
      <feFlood flood-opacity="0" result="BackgroundImageFix"></feFlood>
      <feColorMatrix in="SourceAlpha" type="matrix" values="0 0 0 0 0 0 0 0 0 0 0 0 0 0 0 0 0 0 127 0" result="hardAlpha"></feColorMatrix>
      <feOffset dx="1.95248" dy="-0.488121"></feOffset>
      <feComposite in2="hardAlpha" operator="out"></feComposite>
      <feColorMatrix type="matrix" values="0 0 0 0 1 0 0 0 0 0.827451 0 0 0 0 0.615686 0 0 0 1 0"></feColorMatrix>
      <feBlend mode="normal" in2="BackgroundImageFix" result="effect1_dropShadow_1135_5375"></feBlend>
      <feBlend mode="normal" in="SourceGraphic" in2="effect1_dropShadow_1135_5375" result="shape"></feBlend>
    </filter>
    <filter id="filter1_d_1135_5375" x="209.45" y="158.117" width="27.3243" height="31.8451" filterUnits="userSpaceOnUse" color-interpolation-filters="sRGB">
      <feFlood flood-opacity="0" result="BackgroundImageFix"></feFlood>
      <feColorMatrix in="SourceAlpha" type="matrix" values="0 0 0 0 0 0 0 0 0 0 0 0 0 0 0 0 0 0 127 0" result="hardAlpha"></feColorMatrix>
      <feOffset dx="1.95248" dy="-0.488121"></feOffset>
      <feComposite in2="hardAlpha" operator="out"></feComposite>
      <feColorMatrix type="matrix" values="0 0 0 0 1 0 0 0 0 0.827451 0 0 0 0 0.615686 0 0 0 1 0"></feColorMatrix>
      <feBlend mode="normal" in2="BackgroundImageFix" result="effect1_dropShadow_1135_5375"></feBlend>
      <feBlend mode="normal" in="SourceGraphic" in2="effect1_dropShadow_1135_5375" result="shape"></feBlend>
    </filter>
    <clipPath id="clip0_1135_5375">
      <rect width="68.5442" height="90.0813" fill="white" transform="matrix(-1 0 0 1 251.442 130.73)"></rect>
    </clipPath>
  </defs>
</svg>
