<svg width="24" height="25" viewBox="0 0 24 25" fill="none" xmlns="http://www.w3.org/2000/svg">
<path d="M18 4.5H6C4.875 4.5 4 5.40625 4 6.5V15.5C4 16.625 4.875 17.5 6 17.5H9V20.125C9 20.375 9.15625 20.5 9.375 20.5C9.4375 20.5 9.5 20.5 9.59375 20.4375L13.5 17.5H18C19.0938 17.5 20 16.625 20 15.5V6.5C20 5.40625 19.0938 4.5 18 4.5ZM18.5 15.5C18.5 15.7812 18.25 16 18 16H13L12.5938 16.3125L10.5 17.875V16H6C5.71875 16 5.5 15.7812 5.5 15.5V6.5C5.5 6.25 5.71875 6 6 6H18C18.25 6 18.5 6.25 18.5 6.5V15.5ZM15.5 8.75H8.5C8.21875 8.75 8 9 8 9.25V9.75C8 10.0312 8.21875 10.25 8.5 10.25H15.5C15.75 10.25 16 10.0312 16 9.75V9.25C16 9 15.75 8.75 15.5 8.75ZM12.5 11.75H8.5C8.21875 11.75 8 12 8 12.25V12.75C8 13.0312 8.21875 13.25 8.5 13.25H12.5C12.75 13.25 13 13.0312 13 12.75V12.25C13 12 12.75 11.75 12.5 11.75Z" fill="white"/>
</svg>
