<svg width="32" height="33" viewBox="0 0 32 33" fill="none" xmlns="http://www.w3.org/2000/svg">
<path d="M25.5 19.1489V2.5H13.25M17.4306 28.5H7L7 11" stroke="#333333" stroke-linecap="round" stroke-linejoin="round"/>
<path d="M27.6919 24.9279C27.5406 24.3631 28.0437 23.4769 27.7095 23.0367C27.3754 22.5966 26.3664 22.8453 25.8804 22.5647C25.3944 22.2841 25.1231 21.292 24.557 21.2166C23.9909 21.1413 23.4929 22.0261 22.928 22.1774C22.3632 22.3288 21.477 21.8257 21.0369 22.1599C20.5967 22.494 20.8454 23.503 20.5648 23.989C20.2842 24.475 19.2921 24.7462 19.2168 25.3124C19.1414 25.8785 20.0262 26.3765 20.1776 26.9414C20.3289 27.5062 19.8258 28.3923 20.16 28.8325C20.4941 29.2727 21.5031 29.024 21.9891 29.3045C22.4751 29.5851 22.7464 30.5773 23.3125 30.6526C23.8786 30.7279 24.3766 29.8432 24.9415 29.6918C25.5063 29.5405 26.3925 30.0435 26.8326 29.7094C27.2728 29.3752 27.0241 28.3662 27.3047 27.8802C27.5852 27.3943 28.5774 27.123 28.6527 26.5569C28.7281 25.9908 27.8433 25.4927 27.6919 24.9279Z" fill="#F3921A"/>
<path d="M15.75 7H22.5" stroke="#8A8E8F" stroke-linecap="round"/>
<path d="M10 11H22.5" stroke="#8A8E8F" stroke-linecap="round"/>
<path d="M10 15H17" stroke="#8A8E8F" stroke-linecap="round"/>
<path d="M11.1975 2.57018C10.9974 2.22369 10.7127 1.96053 10.3436 1.77632C9.97443 1.59211 9.52965 1.5 9.00482 1.5H6.67866V6.90351H5.5V7.65351H6.67866V9H7.53262V7.65351H10.646V6.90351H7.53262V6.11404H9.00927C9.5341 6.11404 9.97888 6.02193 10.348 5.83333C10.7172 5.64912 11.0018 5.38158 11.202 5.03948C11.4021 4.69737 11.5 4.28509 11.5 3.80702C11.5 3.32895 11.4021 2.91667 11.202 2.57018H11.1975ZM10.2235 4.9079C9.9433 5.16667 9.52965 5.29386 8.98258 5.29386H7.53262V2.32456H8.98258C9.52965 2.32456 9.9433 2.45176 10.2235 2.71053C10.5037 2.9693 10.646 3.33334 10.646 3.80702C10.646 4.2807 10.5037 4.64474 10.2235 4.90351V4.9079Z" fill="#8A8E8F"/>
</svg>
