<svg width="32" height="33" viewBox="0 0 32 33" fill="none" xmlns="http://www.w3.org/2000/svg">
<path d="M28.9319 25.1175C28.7951 24.6085 28.1152 23.0106 25.045 23.9047L19.6701 25.4716C19.4221 25.5424 19.1826 25.5778 18.9389 25.5734C19.0543 25.4495 19.1569 25.3034 19.2467 25.1396C19.7299 24.2455 19.4477 23.0859 18.6053 22.5016C18.5882 22.4883 18.5711 22.4795 18.554 22.4706C17.2841 21.8288 16.0953 20.9436 15.1375 20.2265C14.804 19.9786 14.4918 19.744 14.2224 19.5581C13.1278 18.7968 11.9177 19.0004 10.8786 19.3014L6.90619 20.4478L6.78218 19.9299C6.62397 19.266 5.98685 18.8676 5.3711 19.0403L3.87023 19.4563C3.25021 19.629 2.87819 20.3062 3.0364 20.9701L5.05468 29.3269C5.13165 29.6456 5.32407 29.9156 5.58918 30.0838C5.76877 30.1988 5.97402 30.2564 6.17499 30.2564C6.27334 30.2564 6.37169 30.2431 6.46576 30.2166L7.96664 29.8005C8.58666 29.6279 8.95867 28.9506 8.80046 28.2867L8.55673 27.282L9.43331 27.0297L14.9494 30.4423C15.548 30.8141 16.1851 31 16.8308 31C17.1857 31 17.5492 30.9425 17.9041 30.8274L27.7303 27.6847C28.6368 27.3926 29.2098 26.171 28.9276 25.1175H28.9319ZM7.74001 28.8621L6.23913 29.2782C6.17499 29.2959 6.1023 29.287 6.04243 29.2472C5.98257 29.2074 5.93981 29.1498 5.92271 29.079L3.90443 20.7222C3.87022 20.5762 3.95574 20.4257 4.0883 20.3859L5.58918 19.9698C5.58918 19.9698 5.63194 19.9609 5.65332 19.9609C5.76877 19.9609 5.87567 20.045 5.9056 20.169L7.92388 28.5257C7.95809 28.6718 7.87256 28.8223 7.74001 28.8621ZM27.4738 26.7552L17.6475 29.8979C16.8736 30.1457 16.121 30.0439 15.4026 29.6013L9.72407 26.0913C9.62145 26.0249 9.49744 26.0116 9.38199 26.0426L8.3301 26.3436L7.13282 21.3818L11.1138 20.2309C12.0032 19.9742 12.9354 19.8104 13.7307 20.3637C13.9872 20.5408 14.2823 20.7621 14.6244 21.0144C15.5993 21.7447 16.8137 22.6477 18.1435 23.3249C18.5711 23.6391 18.7122 24.2057 18.4728 24.6528C18.1777 25.1972 17.7159 25.1839 17.3482 25.0511C16.6298 24.6749 14.7527 23.4754 14.4405 23.285C14.2224 23.1523 13.9488 23.2319 13.8248 23.4621C13.7008 23.6923 13.7734 23.9888 13.9915 24.1216L17.0018 25.9452C17.1429 26.0205 17.2926 26.0913 17.4423 26.1665C18.2761 26.5649 19.0842 26.6401 19.9138 26.4011L25.2887 24.8342C26.8195 24.3872 27.8629 24.5908 28.0724 25.3787C28.2178 25.9187 27.9185 26.6136 27.4823 26.7552H27.4738Z" fill="#333333"/>
<path d="M19.2507 13C20.8615 13 22.1673 11.6569 22.1673 10C22.1673 8.34315 20.8615 7 19.2507 7C17.6398 7 16.334 8.34315 16.334 10C16.334 11.6569 17.6398 13 19.2507 13Z" stroke="#F3921A"/>
<path d="M20.5377 2.614C20.2701 2.5 19.9303 2.5 19.2507 2.5C18.5711 2.5 18.2313 2.5 17.9637 2.614C17.7867 2.68938 17.6258 2.79992 17.4903 2.93929C17.3548 3.07866 17.2473 3.24414 17.174 3.42625C17.1069 3.5935 17.08 3.78925 17.0698 4.0735C17.0652 4.27899 17.01 4.47993 16.9092 4.65743C16.8084 4.83493 16.6655 4.98318 16.4937 5.08825C16.3194 5.18878 16.123 5.24208 15.9232 5.24313C15.7233 5.24418 15.5264 5.19295 15.3511 5.09425C15.1061 4.96075 14.9289 4.88725 14.7532 4.86325C14.3699 4.8114 13.9822 4.91823 13.6755 5.16025C13.4465 5.3425 13.2759 5.64475 12.9361 6.25C12.5963 6.85525 12.4257 7.1575 12.3885 7.45375C12.3634 7.64909 12.3761 7.84759 12.4256 8.03792C12.4751 8.22825 12.5607 8.40667 12.6773 8.563C12.7852 8.707 12.9361 8.82775 13.1702 8.97925C13.5151 9.202 13.7367 9.5815 13.7367 10C13.7367 10.4185 13.5151 10.798 13.1702 11.02C12.9361 11.1723 12.7844 11.293 12.6773 11.437C12.5607 11.5933 12.4751 11.7718 12.4256 11.9621C12.3761 12.1524 12.3634 12.3509 12.3885 12.5463C12.4264 12.8418 12.5963 13.1448 12.9354 13.75C13.2759 14.3553 13.4458 14.6575 13.6755 14.8398C13.8275 14.9597 14.0009 15.0476 14.186 15.0986C14.371 15.1496 14.564 15.1625 14.7539 15.1368C14.9289 15.1128 15.1061 15.0393 15.3511 14.9058C15.5264 14.8071 15.7233 14.7558 15.9232 14.7569C16.123 14.7579 16.3194 14.8112 16.4937 14.9118C16.8459 15.1218 17.0552 15.508 17.0698 15.9265C17.08 16.2115 17.1062 16.4065 17.174 16.5738C17.2473 16.7559 17.3548 16.9213 17.4903 17.0607C17.6258 17.2001 17.7867 17.3106 17.9637 17.386C18.2313 17.5 18.5711 17.5 19.2507 17.5C19.9303 17.5 20.2701 17.5 20.5377 17.386C20.7147 17.3106 20.8756 17.2001 21.0111 17.0607C21.1466 16.9213 21.2541 16.7559 21.3274 16.5738C21.3944 16.4065 21.4214 16.2115 21.4316 15.9265C21.4462 15.508 21.6555 15.121 22.0077 14.9118C22.182 14.8112 22.3784 14.7579 22.5782 14.7569C22.7781 14.7558 22.9749 14.8071 23.1503 14.9058C23.3953 15.0393 23.5725 15.1128 23.7475 15.1368C23.9374 15.1625 24.1304 15.1496 24.3154 15.0986C24.5005 15.0476 24.6739 14.9597 24.8259 14.8398C25.0556 14.6583 25.2255 14.3553 25.5653 13.75C25.9051 13.1448 26.0757 12.8425 26.1129 12.5463C26.1379 12.3509 26.1253 12.1524 26.0758 11.9621C26.0262 11.7718 25.9407 11.5933 25.8241 11.437C25.7162 11.293 25.5653 11.1723 25.3312 11.0208C25.1604 10.914 25.0188 10.7643 24.9197 10.5857C24.8206 10.4071 24.7672 10.2056 24.7647 10C24.7647 9.5815 24.9863 9.202 25.3312 8.98C25.5653 8.82775 25.7169 8.707 25.8241 8.563C25.9407 8.40667 26.0262 8.22825 26.0758 8.03792C26.1253 7.84759 26.1379 7.64909 26.1129 7.45375C26.075 7.15825 25.9051 6.85525 25.566 6.25C25.2255 5.64475 25.0556 5.3425 24.8259 5.16025C24.6739 5.04032 24.5005 4.95236 24.3154 4.9014C24.1304 4.85044 23.9374 4.83748 23.7475 4.86325C23.5725 4.88725 23.3953 4.96075 23.1495 5.09425C22.9743 5.19281 22.7776 5.24397 22.5779 5.24292C22.3781 5.24187 22.1819 5.18865 22.0077 5.08825C21.8359 4.98318 21.6929 4.83493 21.5922 4.65743C21.4914 4.47993 21.4362 4.27899 21.4316 4.0735C21.4214 3.7885 21.3952 3.5935 21.3274 3.42625C21.2541 3.24414 21.1466 3.07866 21.0111 2.93929C20.8756 2.79992 20.7147 2.68938 20.5377 2.614Z" stroke="#F3921A"/>
</svg>
