<svg width="25" height="25" viewBox="0 0 25 25" fill="none" xmlns="http://www.w3.org/2000/svg">
<path d="M8.10001 16C8.63126 16 9.10001 16.4688 9.10001 17C9.10001 17.5625 8.63126 18 8.10001 18C7.53751 18 7.10001 17.5625 7.10001 17C7.10001 16.4688 7.53751 16 8.10001 16ZM8.10001 14.5C6.69376 14.5 5.60001 15.625 5.60001 17C5.60001 18.4063 6.69376 19.5 8.10001 19.5C9.47501 19.5 10.6 18.4063 10.6 17C10.6 15.625 9.47501 14.5 8.10001 14.5ZM19.5688 19.125C19.3813 11.6875 13.3813 5.71875 5.97501 5.53125C5.75626 5.5 5.60001 5.6875 5.60001 5.90625V6.65625C5.60001 6.84375 5.75626 7 5.94376 7.03125C12.5688 7.21875 17.8813 12.5313 18.0688 19.1563C18.1 19.3438 18.2563 19.5 18.4438 19.5H19.1938C19.4125 19.5 19.6 19.3438 19.5688 19.125ZM15.3188 19.125C15.1313 14.0625 11.0375 9.96875 5.97501 9.78125C5.75626 9.75 5.60001 9.9375 5.60001 10.1563V10.9063C5.60001 11.0938 5.75626 11.25 5.94376 11.2813C10.225 11.4688 13.6313 14.875 13.8188 19.1563C13.85 19.3438 14.0063 19.5313 14.1938 19.5313H14.9438C15.1625 19.5 15.35 19.3438 15.3188 19.125Z" fill="white"/>
</svg>
