<svg width="100" height="100" viewBox="0 0 100 100" fill="none" xmlns="http://www.w3.org/2000/svg">
<path d="M27 37H44V19" stroke="#F3921A" stroke-width="2"/>
<path d="M74 82H26V50V36L43 18H50H74V38" stroke="#F3921A" stroke-width="2"/>
<path d="M74.58 70.0001V53.2671C74.58 51.7591 75.015 50.5604 75.885 49.6711C76.7743 48.7624 78.031 48.3081 79.655 48.3081C80.2543 48.3081 80.8246 48.3854 81.366 48.5401C81.9266 48.6754 82.4003 48.8978 82.787 49.2071L81.946 51.3241C81.656 51.0921 81.3273 50.9181 80.96 50.8021C80.5926 50.6668 80.206 50.5991 79.8 50.5991C78.988 50.5991 78.3693 50.8311 77.944 51.2951C77.5186 51.7398 77.306 52.4068 77.306 53.2961V55.3551L77.364 56.6311V70.0001H74.58ZM71.97 56.9211V54.6301H81.772V56.9211H71.97Z" fill="#F3921A"/>
<path d="M60.7576 70.1742C59.2689 70.1742 57.9349 69.8455 56.7556 69.1882C55.5956 68.5308 54.6773 67.6125 54.0006 66.4332C53.3239 65.2538 52.9856 63.8812 52.9856 62.3152C52.9856 60.7492 53.3239 59.3862 54.0006 58.2262C54.6773 57.0468 55.5956 56.1285 56.7556 55.4712C57.9349 54.8138 59.2689 54.4852 60.7576 54.4852C62.0529 54.4852 63.2226 54.7752 64.2666 55.3552C65.3106 55.9352 66.1419 56.8052 66.7606 57.9652C67.3986 59.1252 67.7176 60.5752 67.7176 62.3152C67.7176 64.0552 67.4083 65.5052 66.7896 66.6652C66.1903 67.8252 65.3686 68.7048 64.3246 69.3042C63.2806 69.8842 62.0916 70.1742 60.7576 70.1742ZM60.9896 67.7382C61.9563 67.7382 62.8263 67.5158 63.5996 67.0712C64.3923 66.6265 65.0109 65.9982 65.4556 65.1862C65.9196 64.3548 66.1516 63.3978 66.1516 62.3152C66.1516 61.2132 65.9196 60.2658 65.4556 59.4732C65.0109 58.6612 64.3923 58.0328 63.5996 57.5882C62.8263 57.1435 61.9563 56.9212 60.9896 56.9212C60.0036 56.9212 59.1239 57.1435 58.3506 57.5882C57.5773 58.0328 56.9586 58.6612 56.4946 59.4732C56.0306 60.2658 55.7986 61.2132 55.7986 62.3152C55.7986 63.3978 56.0306 64.3548 56.4946 65.1862C56.9586 65.9982 57.5773 66.6265 58.3506 67.0712C59.1239 67.5158 60.0036 67.7382 60.9896 67.7382ZM66.2386 70.0002V65.8532L66.4126 62.2862L66.1226 58.7192V48.4822H68.9066V70.0002H66.2386Z" fill="#F3921A"/>
<path d="M42.7879 70.1741C41.5119 70.1741 40.3422 69.8841 39.2789 69.3041C38.2349 68.7048 37.3939 67.8251 36.7559 66.6651C36.1372 65.5051 35.8279 64.0551 35.8279 62.3151C35.8279 60.5751 36.1276 59.1251 36.7269 57.9651C37.3456 56.8051 38.1769 55.9351 39.2209 55.3551C40.2842 54.7751 41.4732 54.4851 42.7879 54.4851C44.2959 54.4851 45.6299 54.8138 46.7899 55.4711C47.9499 56.1284 48.8682 57.0468 49.5449 58.2261C50.2216 59.3861 50.5599 60.7491 50.5599 62.3151C50.5599 63.8811 50.2216 65.2538 49.5449 66.4331C48.8682 67.6124 47.9499 68.5308 46.7899 69.1881C45.6299 69.8454 44.2959 70.1741 42.7879 70.1741ZM34.6389 75.6261V54.6301H37.3069V58.7771L37.1329 62.3441L37.4229 65.9111V75.6261H34.6389ZM42.5559 67.7381C43.5419 67.7381 44.4216 67.5158 45.1949 67.0711C45.9876 66.6264 46.6063 65.9981 47.0509 65.1861C47.5149 64.3548 47.7469 63.3978 47.7469 62.3151C47.7469 61.2131 47.5149 60.2658 47.0509 59.4731C46.6063 58.6611 45.9876 58.0328 45.1949 57.5881C44.4216 57.1434 43.5419 56.9211 42.5559 56.9211C41.5893 56.9211 40.7096 57.1434 39.9169 57.5881C39.1436 58.0328 38.5249 58.6611 38.0609 59.4731C37.6162 60.2658 37.3939 61.2131 37.3939 62.3151C37.3939 63.3978 37.6162 64.3548 38.0609 65.1861C38.5249 65.9981 39.1436 66.6264 39.9169 67.0711C40.7096 67.5158 41.5893 67.7381 42.5559 67.7381Z" fill="#F3921A"/>
</svg>
